<?xml version="1.0" encoding="UTF-8" standalone="no"?><svg xmlns="http://www.w3.org/2000/svg" xmlns:xlink="http://www.w3.org/1999/xlink" contentStyleType="text/css" height="436.4583px" preserveAspectRatio="none" style="width:448px;height:436px;background:#222222;" version="1.1" viewBox="0 0 448 436" width="448.9583px" zoomAndPan="magnify"><defs/><g><!--MD5=[12e8ed3d31618ab0ff1f89041617434d]
cluster ui_base_components--><g id="cluster_ui_base_components"><rect fill="none" height="125" rx="4.1667" ry="4.1667" style="stroke:#2A9FD6;stroke-width:2.0833333333333335;" width="236.4583" x="17.7083" y="17.7083"/><path d="M247.9167,17.7083 L247.9167,47.0378 L237.5,57.4544 L17.7083,57.4544 " fill="none" style="stroke:#2A9FD6;stroke-width:2.0833333333333335;"/><text fill="#2A9FD6" font-family="&quot;Verdana&quot;" font-size="20.8333" font-weight="bold" lengthAdjust="spacing" textLength="209.375" x="26.0417" y="45.5851">ui_base_components</text></g><!--MD5=[3165512fa2fca8d17ae74d274d677197]
cluster ui_loading_frame--><g id="cluster_ui_loading_frame"><rect fill="none" height="257.2917" rx="4.1667" ry="4.1667" style="stroke:#2A9FD6;stroke-width:2.0833333333333335;" width="355.2083" x="82.2917" y="167.7083"/><path d="M271.875,167.7083 L271.875,197.0378 L261.4583,207.4544 L82.2917,207.4544 " fill="none" style="stroke:#2A9FD6;stroke-width:2.0833333333333335;"/><text fill="#2A9FD6" font-family="&quot;Verdana&quot;" font-size="20.8333" font-weight="bold" lengthAdjust="spacing" textLength="168.75" x="90.625" y="195.5851">ui_loading_frame</text></g><!--MD5=[5f541e8ad6d2a88033f479c756d5b41a]
class UIComponent--><g id="elem_UIComponent"><rect codeLine="24" fill="none" height="51.9124" id="UIComponent" rx="4.1667" ry="4.1667" style="stroke:#55B2DE;stroke-width:1.0416666666666667;" width="107.2917" x="81.7708" y="73.9583"/><rect fill="#227FAB" height="35.2458" rx="4.1667" ry="4.1667" style="stroke:#227FAB;stroke-width:1.0416666666666667;" width="107.2917" x="81.7708" y="73.9583"/><rect fill="#227FAB" height="4.1667" style="stroke:#227FAB;stroke-width:1.0416666666666667;" width="107.2917" x="81.7708" y="105.0374"/><rect codeLine="24" fill="none" height="51.9124" id="UIComponent" rx="4.1667" ry="4.1667" style="stroke:#55B2DE;stroke-width:1.0416666666666667;" width="107.2917" x="81.7708" y="73.9583"/><ellipse cx="96.3542" cy="91.5812" fill="none" rx="10.4167" ry="10.4167" style="stroke:#55B2DE;stroke-width:1.0416666666666667;"/><path d="M97.9004,88.6678 Q98.0143,88.505 98.1445,88.4237 Q98.291,88.3423 98.4538,88.3423 Q98.7305,88.3423 98.8932,88.5376 Q99.0723,88.7329 99.0723,89.1724 L99.0723,90.2466 Q99.0723,90.686 98.8932,90.8813 Q98.7305,91.0767 98.4538,91.0767 Q98.1934,91.0767 98.0469,90.9302 Q97.9004,90.8 97.819,90.4093 Q97.7865,90.1489 97.6563,90.0187 Q97.3958,89.742 96.9401,89.5793 Q96.5007,89.4165 96.0449,89.4165 Q95.4915,89.4165 95.0195,89.6606 Q94.5475,89.9048 94.1895,90.4582 Q93.8314,90.9953 93.8314,91.7603 L93.8314,92.5741 Q93.8314,93.4692 94.4824,94.0715 Q95.1497,94.6737 96.3053,94.6737 Q97.0052,94.6737 97.4935,94.4946 Q97.7702,94.3807 98.0794,94.0552 Q98.2747,93.8599 98.3887,93.811 Q98.5026,93.7459 98.6328,93.7459 Q98.8932,93.7459 99.0723,93.9412 Q99.2676,94.1203 99.2676,94.3807 Q99.2676,94.6411 99.0072,94.9341 Q98.6328,95.3573 98.0469,95.6014 Q97.2656,95.9269 96.3216,95.9269 Q95.1986,95.9269 94.3197,95.4712 Q93.5872,95.1131 93.0827,94.3156 Q92.5781,93.5181 92.5781,92.5903 L92.5781,91.744 Q92.5781,90.7674 93.0339,89.9211 Q93.4896,89.0747 94.2871,88.619 Q95.1009,88.1632 95.9961,88.1632 Q96.5495,88.1632 97.0215,88.2935 Q97.4935,88.4074 97.9004,88.6678 Z " fill="#2A9FD6"/><text fill="#ADAFAE" font-family="&quot;Verdana&quot;" font-size="11.4583" lengthAdjust="spacing" textLength="65.625" x="115.1042" y="96.2697">UIComponent</text><line style="stroke:#55B2DE;stroke-width:1.0416666666666667;" x1="82.8125" x2="188.0208" y1="109.2041" y2="109.2041"/><line style="stroke:#55B2DE;stroke-width:1.0416666666666667;" x1="82.8125" x2="188.0208" y1="117.5374" y2="117.5374"/></g><!--MD5=[9c433eac90e2bd93661821fffb99eb05]
class UILoadingFrame--><g id="elem_UILoadingFrame"><rect codeLine="28" fill="none" height="184.3913" id="UILoadingFrame" rx="4.1667" ry="4.1667" style="stroke:#55B2DE;stroke-width:1.0416666666666667;" width="211.4583" x="208.8542" y="223.9583"/><rect fill="#227FAB" height="35.2458" rx="4.1667" ry="4.1667" style="stroke:#227FAB;stroke-width:1.0416666666666667;" width="211.4583" x="208.8542" y="223.9583"/><rect fill="#227FAB" height="4.1667" style="stroke:#227FAB;stroke-width:1.0416666666666667;" width="211.4583" x="208.8542" y="255.0374"/><rect codeLine="28" fill="none" height="184.3913" id="UILoadingFrame" rx="4.1667" ry="4.1667" style="stroke:#55B2DE;stroke-width:1.0416666666666667;" width="211.4583" x="208.8542" y="223.9583"/><ellipse cx="265.1042" cy="241.5812" fill="none" rx="10.4167" ry="10.4167" style="stroke:#55B2DE;stroke-width:1.0416666666666667;"/><path d="M266.6504,238.6678 Q266.7643,238.505 266.8945,238.4237 Q267.041,238.3423 267.2038,238.3423 Q267.4805,238.3423 267.6432,238.5376 Q267.8223,238.7329 267.8223,239.1724 L267.8223,240.2466 Q267.8223,240.686 267.6432,240.8813 Q267.4805,241.0767 267.2038,241.0767 Q266.9434,241.0767 266.7969,240.9302 Q266.6504,240.8 266.569,240.4093 Q266.5365,240.1489 266.4063,240.0187 Q266.1458,239.742 265.6901,239.5793 Q265.2507,239.4165 264.7949,239.4165 Q264.2415,239.4165 263.7695,239.6606 Q263.2975,239.9048 262.9395,240.4582 Q262.5814,240.9953 262.5814,241.7603 L262.5814,242.5741 Q262.5814,243.4692 263.2324,244.0715 Q263.8997,244.6737 265.0553,244.6737 Q265.7552,244.6737 266.2435,244.4946 Q266.5202,244.3807 266.8294,244.0552 Q267.0247,243.8599 267.1387,243.811 Q267.2526,243.7459 267.3828,243.7459 Q267.6432,243.7459 267.8223,243.9412 Q268.0176,244.1203 268.0176,244.3807 Q268.0176,244.6411 267.7572,244.9341 Q267.3828,245.3573 266.7969,245.6014 Q266.0156,245.9269 265.0716,245.9269 Q263.9486,245.9269 263.0697,245.4712 Q262.3372,245.1131 261.8327,244.3156 Q261.3281,243.5181 261.3281,242.5903 L261.3281,241.744 Q261.3281,240.7674 261.7839,239.9211 Q262.2396,239.0747 263.0371,238.619 Q263.8509,238.1632 264.7461,238.1632 Q265.2995,238.1632 265.7715,238.2935 Q266.2435,238.4074 266.6504,238.6678 Z " fill="#2A9FD6"/><text fill="#ADAFAE" font-family="&quot;Verdana&quot;" font-size="11.4583" lengthAdjust="spacing" textLength="80.2083" x="290.1042" y="246.2697">UILoadingFrame</text><line style="stroke:#55B2DE;stroke-width:1.0416666666666667;" x1="209.8958" x2="419.2708" y1="259.2041" y2="259.2041"/><rect fill="none" height="6.25" style="stroke:#55B2DE;stroke-width:1.0416666666666667;" width="6.25" x="217.1875" y="274.2228"/><text fill="#ADAFAE" font-family="&quot;Verdana&quot;" font-size="11.4583" lengthAdjust="spacing" textLength="95.8333" x="233.8542" y="280.4738">_TIMEOUT: Number</text><rect fill="none" height="6.25" style="stroke:#55B2DE;stroke-width:1.0416666666666667;" width="6.25" x="217.1875" y="299.0519"/><text fill="#ADAFAE" font-family="&quot;Verdana&quot;" font-size="11.4583" lengthAdjust="spacing" textLength="84.375" x="233.8542" y="305.3029">_visible: Boolean</text><line style="stroke:#55B2DE;stroke-width:1.0416666666666667;" x1="209.8958" x2="419.2708" y1="317.1956" y2="317.1956"/><ellipse cx="220.3125" cy="335.3394" fill="none" rx="3.125" ry="3.125" style="stroke:#55B2DE;stroke-width:1.0416666666666667;"/><text fill="#ADAFAE" font-family="&quot;Verdana&quot;" font-size="11.4583" lengthAdjust="spacing" textLength="175" x="233.8542" y="338.4654">UILoadingFrame(): UILoadingFrame</text><line style="stroke:#55B2DE;stroke-width:1.0416666666666667;stroke-dasharray:1.0,2.0;" x1="209.8958" x2="419.2708" y1="350.3581" y2="350.3581"/><ellipse cx="220.3125" cy="368.5018" fill="none" rx="3.125" ry="3.125" style="stroke:#55B2DE;stroke-width:1.0416666666666667;"/><text fill="#ADAFAE" font-family="&quot;Verdana&quot;" font-size="11.4583" lengthAdjust="spacing" textLength="64.5833" x="233.8542" y="371.6278">show(): void</text><ellipse cx="220.3125" cy="393.3309" fill="none" rx="3.125" ry="3.125" style="stroke:#55B2DE;stroke-width:1.0416666666666667;"/><text fill="#ADAFAE" font-family="&quot;Verdana&quot;" font-size="11.4583" lengthAdjust="spacing" textLength="56.25" x="233.8542" y="396.4569">hide(): void</text></g><!--MD5=[1c9dc00bfd784125614cc1b299b41c30]
class UIHelp--><g id="elem_UIHelp"><rect fill="none" height="51.9124" id="UIHelp" rx="4.1667" ry="4.1667" style="stroke:#55B2DE;stroke-width:1.0416666666666667;" width="72.9167" x="98.9583" y="290.1042"/><rect fill="#227FAB" height="35.2458" rx="4.1667" ry="4.1667" style="stroke:#227FAB;stroke-width:1.0416666666666667;" width="72.9167" x="98.9583" y="290.1042"/><rect fill="#227FAB" height="4.1667" style="stroke:#227FAB;stroke-width:1.0416666666666667;" width="72.9167" x="98.9583" y="321.1833"/><rect fill="none" height="51.9124" id="UIHelp" rx="4.1667" ry="4.1667" style="stroke:#55B2DE;stroke-width:1.0416666666666667;" width="72.9167" x="98.9583" y="290.1042"/><ellipse cx="113.5417" cy="307.7271" fill="none" rx="10.4167" ry="10.4167" style="stroke:#55B2DE;stroke-width:1.0416666666666667;"/><path d="M115.0879,304.8136 Q115.2018,304.6509 115.332,304.5695 Q115.4785,304.4881 115.6413,304.4881 Q115.918,304.4881 116.0807,304.6834 Q116.2598,304.8787 116.2598,305.3182 L116.2598,306.3924 Q116.2598,306.8319 116.0807,307.0272 Q115.918,307.2225 115.6413,307.2225 Q115.3809,307.2225 115.2344,307.076 Q115.0879,306.9458 115.0065,306.5552 Q114.974,306.2948 114.8438,306.1646 Q114.5833,305.8879 114.1276,305.7251 Q113.6882,305.5623 113.2324,305.5623 Q112.679,305.5623 112.207,305.8065 Q111.735,306.0506 111.377,306.604 Q111.0189,307.1411 111.0189,307.9061 L111.0189,308.7199 Q111.0189,309.6151 111.6699,310.2173 Q112.3372,310.8195 113.4928,310.8195 Q114.1927,310.8195 114.681,310.6405 Q114.9577,310.5265 115.2669,310.201 Q115.4622,310.0057 115.5762,309.9569 Q115.6901,309.8918 115.8203,309.8918 Q116.0807,309.8918 116.2598,310.0871 Q116.4551,310.2661 116.4551,310.5265 Q116.4551,310.7869 116.1947,311.0799 Q115.8203,311.5031 115.2344,311.7472 Q114.4531,312.0728 113.5091,312.0728 Q112.3861,312.0728 111.5072,311.617 Q110.7747,311.259 110.2702,310.4614 Q109.7656,309.6639 109.7656,308.7362 L109.7656,307.8898 Q109.7656,306.9132 110.2214,306.0669 Q110.6771,305.2205 111.4746,304.7648 Q112.2884,304.3091 113.1836,304.3091 Q113.737,304.3091 114.209,304.4393 Q114.681,304.5532 115.0879,304.8136 Z " fill="#2A9FD6"/><text fill="#ADAFAE" font-family="&quot;Verdana&quot;" font-size="11.4583" lengthAdjust="spacing" textLength="31.25" x="132.2917" y="312.4156">UIHelp</text><line style="stroke:#55B2DE;stroke-width:1.0416666666666667;" x1="100" x2="170.8333" y1="325.3499" y2="325.3499"/><line style="stroke:#55B2DE;stroke-width:1.0416666666666667;" x1="100" x2="170.8333" y1="333.6833" y2="333.6833"/></g><!--MD5=[8d55f86c4c0064ec526adf4ac69b52e8]
reverse link UIComponent to UIHelp--><g id="link_UIComponent_UIHelp"><path codeLine="37" d="M135.4167,147.5104 C135.4167,191.2813 135.4167,255.1771 135.4167,290.0729 " fill="none" id="UIComponent-backto-UIHelp" style="stroke:#2A9FD6;stroke-width:3.125;"/><polygon fill="none" points="128.125,147.2708,135.4167,126.4375,142.7083,147.2708,128.125,147.2708" style="stroke:#2A9FD6;stroke-width:3.125;"/></g><!--MD5=[825800121eb89d16bf0ef1eb7ae0a9f8]
@startuml ui_loading_frame

'Wav2Bar - Free software for creating audio visualization (motion design) videos
'Copyright (C) 2023  Picorims <picorims.contact@gmail.com>

'This program is free software: you can redistribute it and/or modify
'it under the terms of the GNU General Public License as published by
'the Free Software Foundation, either version 3 of the License, or
'any later version.

'This program is distributed in the hope that it will be useful,
'but WITHOUT ANY WARRANTY; without even the implied warranty of
'MERCHANTABILITY or FITNESS FOR A PARTICULAR PURPOSE.  See the
'GNU General Public License for more details.

'You should have received a copy of the GNU General Public License
'along with this program.  If not, see <https://www.gnu.org/licenses/>.

!theme cyborg-outline
skinparam BackgroundColor #222222
' skinparam groupInheritance 2
skinparam PackageStyle frame

package "ui_base_components" {
    class UIComponent {}
}

package "ui_loading_frame" {
    class UILoadingFrame {
        - _TIMEOUT: Number
        - _visible: Boolean
        - -
        + UILoadingFrame(): UILoadingFrame
        ..
        + show(): void
        + hide(): void
    }
    UIComponent <|- - UIHelp
}

@enduml

@startuml ui_loading_frame








skinparam backgroundColor transparent
skinparam useBetaStyle false






<style>
  root {
    BackgroundColor transparent
    FontColor #2A9FD6
    HyperLinkColor #fd7e14
    LineColor #55B2DE
    LineThickness 1
    Margin 10
    Padding 6
    Shadowing 0.0
  }
  node {
   Padding 15
   roundcorner 20
   BackgroundColor transparent
  }
  caption {
    LineThickness 0
  }
  footer {
    LineThickness 0
  }
  groupHeader {
    BackgroundColor #555
    FontColor #9933CC
    FontStyle bold
  }
  header {
    LineThickness 0
  }
  referenceHeader {
    BackgroundColor transparent
    FontColor #ADAFAE
    FontStyle bold
  }
  separator {
    BackgroundColor #FFF
    FontColor transparent
    FontStyle bold
  }
  title {
	FontSize 20
	BorderRoundCorner            8
	BorderThickness 	         1
	BackgroundColor  transparent
	FontColor #2A9FD6
	BorderColor #555
  }
  nwdiagDiagram {
	network {
			FontColor #2A9FD6
	BorderColor #55B2DE
	BackgroundColor transparent    
		LineColor #2A9FD6
		LineThickness 1.0
		FontColor #227FAB
	}
	server {
			FontColor #2A9FD6
	BorderColor #55B2DE
	BackgroundColor transparent
	}
	arrow {
		FontColor #227FAB
		LineColor #227FAB
	}
	group {
		BackGroundColor #222
		LineColor #4E4E4E
		LineThickness 2.0
		Margin 5
		Padding 5
	}
  }
  ganttDiagram {
	task {
			FontColor #2A9FD6
	BorderColor #55B2DE
	BackgroundColor transparent
		LineColor #2A9FD6
		Margin 10
		Padding 6
	}
	note {
		FontColor #9933CC
		LineColor #AD5CD6
		BackGroundColor transparent
	}
	separator {
		LineColor #777777
		BackGroundColor transparent
		FontColor #777777
	}
	milestone {
		FontColor #9933CC
		FontSize 16
		FontStyle italic
		BackGroundColor #555
		LineColor #777777
	}
	timeline {
		BackgroundColor #555
		FontColor #777777
	}
	closed {
		BackgroundColor #FFA033
		FontColor #FF8800
	}
  }
</style>
skinparam defaultFontName       "Verdana"
skinparam defaultFontSize       12
skinparam dpi                   100
skinparam shadowing             false
skinparam roundcorner           8
skinparam ParticipantPadding    40
skinparam BoxPadding            40
skinparam Padding               5
skinparam ArrowColor            #ADAFAE
skinparam stereotype {
    CBackgroundColor #777777
    CBorderColor #444444
    ABackgroundColor #5F8F00
    ABorderColor #92C233
    IBackgroundColor #a30000
    IBorderColor #D63333
    EBackgroundColor #cc6d00
    EBorderColor #FFA033
    NBackgroundColor #7a29a3
    NBorderColor #AD5CD6
}
skinparam title {
	FontColor	                 #2A9FD6
	BorderColor	                 #777777
	FontSize	    	         20
	BorderRoundCorner            8
	BorderThickness 	         1
	BackgroundColor              transparent
}

skinparam legend {
	BackgroundColor transparent
	BorderColor #777777
	FontColor #ADAFAE
}

skinparam swimlane {
	BorderColor #9933CC
	BorderThickness 2
	TitleBackgroundColor  #444444-#555
	TitleFontColor #2A9FD6
}


skinparam activity {
		FontColor #2A9FD6
	BorderColor #55B2DE
	BackgroundColor transparent
	BarColor #77B300
	StartColor #9933CC
	EndColor #9933CC
	DiamondBackgroundColor transparent
  	DiamondBorderColor #777777
  	DiamondFontColor #777777
}


skinparam participant {
		FontColor #2A9FD6
	BorderColor #55B2DE
	BackgroundColor transparent
	ParticipantBorderThickness 2
}


skinparam actor {
		FontColor #2A9FD6
	BorderColor #55B2DE
	BackgroundColor transparent
	FontColor #2A9FD6
}


skinparam arrow {
	Thickness 3
	Color #2A9FD6
	FontColor #FFF
}


skinparam sequence {
	BorderColor #2A9FD6
	TitleFontColor #2A9FD6
	BackgroundColor transparent
	StartColor #2A9FD6
	EndColor #2A9FD6
	BoxBackgroundColor transparent
	BoxBorderColor #ADAFAE
	BoxFontColor #ADAFAE
	DelayFontColor #ADAFAE
	LifeLineBorderColor #555
	LifeLineBorderThickness 2
	LifeLineBackgroundColor transparent
	GroupBorderColor #ADAFAE
	GroupFontColor #ADAFAE
	GroupHeaderFontColor #9933CC
	GroupBackgroundColor transparent
	GroupHeaderBackgroundColor transparent
	DividerBackgroundColor transparent
    DividerBorderColor #ADAFAE
    DividerBorderThickness 2
    DividerFontColor #ADAFAE
	ReferenceBackgroundColor transparent
	ReferenceBorderColor #ADAFAE
	ReferenceFontColor #ADAFAE
	ReferenceHeaderFontColor #9933CC
	ReferenceHeaderBackgroundColor transparent
	StereotypeFontColor #2A9FD6
}


skinparam partition {
	BorderColor #2A9FD6
	FontColor #2A9FD6
	BackgroundColor transparent
}


skinparam collections {
		FontColor #2A9FD6
	BorderColor #55B2DE
	BackgroundColor transparent
}


skinparam control {
		FontColor #2A9FD6
	BorderColor #55B2DE
	BackgroundColor transparent
	FontColor #2A9FD6
}


skinparam entity {
		FontColor #2A9FD6
	BorderColor #55B2DE
	BackgroundColor transparent
	FontColor #2A9FD6
}


skinparam boundary {
		FontColor #2A9FD6
	BorderColor #55B2DE
	BackgroundColor transparent
	FontColor #2A9FD6
}


skinparam agent {
	BackgroundColor transparent
	BorderColor #cc6d00
	FontColor #ADAFAE
}


skinparam note {
	BorderThickness 1
	BackgroundColor transparent
	BorderColor #AD5CD6
	FontColor #AD5CD6
}


skinparam artifact {
	BackgroundColor transparent
	BorderColor #BDBFBE
	FontColor #BDBFBE
}


skinparam component {
		FontColor #2A9FD6
	BorderColor #55B2DE
	BackgroundColor transparent
}


skinparam interface {
	BackgroundColor  transparent
	BorderColor  #CC0000
	FontColor #ADAFAE
}


skinparam storage {
	BackgroundColor transparent
  	BorderColor #FFA033
	FontColor #FF8800
}


skinparam node {
	BackgroundColor  transparent
	BorderColor #ADAFAE
	FontColor #ADAFAE
}


skinparam cloud {
	BackgroundColor transparent
	BorderColor #F2FCFE
	FontColor #ADAFAE
}


skinparam database {
		FontColor #2A9FD6
	BorderColor #55B2DE
	BackgroundColor transparent
	FontColor #2A9FD6
}



skinparam class {
		FontColor #2A9FD6
	BorderColor #55B2DE
	BackgroundColor transparent
        FontColor #222
	HeaderBackgroundColor #227FAB
	StereotypeFontColor #ADAFAE
	BorderThickness 1
	AttributeFontColor #ADAFAE
	AttributeFontSize 11
}


skinparam object {
		FontColor #2A9FD6
	BorderColor #55B2DE
	BackgroundColor transparent
	StereotypeFontColor #ADAFAE
	BorderThickness 1
	AttributeFontColor #777777
	AttributeFontSize 11
}


skinparam usecase {
		FontColor #2A9FD6
	BorderColor #55B2DE
	BackgroundColor transparent
	BorderThickness 2
	StereotypeFontColor #2A9FD6
}


skinparam rectangle {
		FontColor #2A9FD6
	BorderColor #55B2DE
	BackgroundColor transparent
	BorderThickness 2
	StereotypeFontColor #2A9FD6
}


skinparam package {
	BackgroundColor transparent
  	BorderColor #2A9FD6
	FontColor #2A9FD6
	BorderThickness 2
}


skinparam folder {
	BackgroundColor transparent
  	BorderColor #FF8800
	FontColor #FF8800
	BorderThickness 2
}


skinparam frame {
	BackgroundColor transparent
  	BorderColor #9933CC
	FontColor #9933CC
	BorderThickness 2
}


skinparam state {
		FontColor #2A9FD6
	BorderColor #55B2DE
	BackgroundColor transparent
	StartColor #9933CC
	EndColor #9933CC
	AttributeFontColor #777777
	AttributeFontSize 11
}


skinparam queue {
		FontColor #2A9FD6
	BorderColor #55B2DE
	BackgroundColor transparent
}


skinparam card {
	BackgroundColor transparent
	BorderColor #9933CC
	FontColor #9933CC
}


skinparam file {
	BackgroundColor transparent
	BorderColor #555
	FontColor #555
}


skinparam stack {
		FontColor #2A9FD6
	BorderColor #55B2DE
	BackgroundColor transparent
}
skinparam BackgroundColor #222222
skinparam PackageStyle frame

package "ui_base_components" {
    class UIComponent {}
}

package "ui_loading_frame" {
    class UILoadingFrame {
        - _TIMEOUT: Number
        - _visible: Boolean
        - -
        + UILoadingFrame(): UILoadingFrame
        ..
        + show(): void
        + hide(): void
    }
    UIComponent <|- - UIHelp
}

@enduml

PlantUML version 1.2022.7(Mon Aug 22 19:01:30 CEST 2022)
(GPL source distribution)
Java Runtime: OpenJDK Runtime Environment
JVM: OpenJDK 64-Bit Server VM
Default Encoding: Cp1252
Language: fr
Country: FR
--></g></svg>