<?xml version="1.0" encoding="UTF-8" standalone="no"?><svg xmlns="http://www.w3.org/2000/svg" xmlns:xlink="http://www.w3.org/1999/xlink" contentScriptType="application/ecmascript" contentStyleType="text/css" height="1513.5417px" preserveAspectRatio="none" style="width:1151px;height:1513px;background:#222222;" version="1.1" viewBox="0 0 1151 1513" width="1151.0417px" zoomAndPan="magnify"><defs/><g><rect height="78.3529" rx="4.1667" ry="4.1667" style="stroke:#2A9FD6;stroke-width:2.0833333333333335;fill:none;" width="126.0417" x="494.7917" y="17.7083"/><path d="M610.4167,17.7083 L610.4167,39.1764 L600,49.5931 L494.7917,49.5931 " fill="none" style="stroke:#2A9FD6;stroke-width:2.0833333333333335;"/><text fill="#2A9FD6" font-family="&quot;Verdana&quot;" font-size="14.5833" lengthAdjust="spacing" textLength="94.7917" x="503.125" y="39.0971">global_context</text><rect height="78.3529" rx="4.1667" ry="4.1667" style="stroke:#2A9FD6;stroke-width:2.0833333333333335;fill:none;" width="173.9583" x="17.7083" y="1423.9583"/><path d="M181.25,1423.9583 L181.25,1445.4264 L170.8333,1455.8431 L17.7083,1455.8431 " fill="none" style="stroke:#2A9FD6;stroke-width:2.0833333333333335;"/><text fill="#2A9FD6" font-family="&quot;Verdana&quot;" font-size="14.5833" lengthAdjust="spacing" textLength="142.7083" x="26.0417" y="1445.3471">electron_ipcRenderer</text><rect height="78.3529" rx="4.1667" ry="4.1667" style="stroke:#2A9FD6;stroke-width:2.0833333333333335;fill:none;" width="77.0833" x="382.8125" y="158.3333"/><path d="M449.4792,158.3333 L449.4792,179.8014 L439.0625,190.2181 L382.8125,190.2181 " fill="none" style="stroke:#2A9FD6;stroke-width:2.0833333333333335;"/><text fill="#2A9FD6" font-family="&quot;Verdana&quot;" font-size="14.5833" lengthAdjust="spacing" textLength="45.8333" x="391.1458" y="179.7221">system</text><rect height="78.3529" rx="4.1667" ry="4.1667" style="stroke:#2A9FD6;stroke-width:2.0833333333333335;fill:none;" width="109.375" x="165.625" y="439.5833"/><path d="M264.5833,439.5833 L264.5833,461.0514 L254.1667,471.4681 L165.625,471.4681 " fill="none" style="stroke:#2A9FD6;stroke-width:2.0833333333333335;"/><text fill="#2A9FD6" font-family="&quot;Verdana&quot;" font-size="14.5833" lengthAdjust="spacing" textLength="78.125" x="173.9583" y="460.9721">system_info</text><rect height="78.3529" rx="4.1667" ry="4.1667" style="stroke:#2A9FD6;stroke-width:2.0833333333333335;fill:none;" width="131.25" x="492.1875" y="580.2083"/><path d="M613.0208,580.2083 L613.0208,601.6764 L602.6042,612.0931 L492.1875,612.0931 " fill="none" style="stroke:#2A9FD6;stroke-width:2.0833333333333335;"/><text fill="#2A9FD6" font-family="&quot;Verdana&quot;" font-size="14.5833" lengthAdjust="spacing" textLength="100" x="500.5208" y="601.5971">ui_components</text><rect height="78.3529" rx="4.1667" ry="4.1667" style="stroke:#2A9FD6;stroke-width:2.0833333333333335;fill:none;" width="171.875" x="404.1667" y="1002.0833"/><path d="M565.625,1002.0833 L565.625,1023.5514 L555.2083,1033.9681 L404.1667,1033.9681 " fill="none" style="stroke:#2A9FD6;stroke-width:2.0833333333333335;"/><text fill="#2A9FD6" font-family="&quot;Verdana&quot;" font-size="14.5833" lengthAdjust="spacing" textLength="140.625" x="412.5" y="1023.4721">ui_base_components</text><rect height="78.3529" rx="4.1667" ry="4.1667" style="stroke:#2A9FD6;stroke-width:2.0833333333333335;fill:none;" width="126.0417" x="494.7917" y="720.8333"/><path d="M610.4167,720.8333 L610.4167,742.3014 L600,752.7181 L494.7917,752.7181 " fill="none" style="stroke:#2A9FD6;stroke-width:2.0833333333333335;"/><text fill="#2A9FD6" font-family="&quot;Verdana&quot;" font-size="14.5833" lengthAdjust="spacing" textLength="94.7917" x="503.125" y="742.2221">ui_parameters</text><rect height="78.3529" rx="4.1667" ry="4.1667" style="stroke:#2A9FD6;stroke-width:2.0833333333333335;fill:none;" width="137.5" x="607.8125" y="861.4583"/><path d="M734.8958,861.4583 L734.8958,882.9264 L724.4792,893.3431 L607.8125,893.3431 " fill="none" style="stroke:#2A9FD6;stroke-width:2.0833333333333335;"/><text fill="#2A9FD6" font-family="&quot;Verdana&quot;" font-size="14.5833" lengthAdjust="spacing" textLength="106.25" x="616.1458" y="882.8471">ui_append_help</text><rect height="78.3529" rx="4.1667" ry="4.1667" style="stroke:#2A9FD6;stroke-width:2.0833333333333335;fill:none;" width="136.4583" x="360.4167" y="861.4583"/><path d="M486.4583,861.4583 L486.4583,882.9264 L476.0417,893.3431 L360.4167,893.3431 " fill="none" style="stroke:#2A9FD6;stroke-width:2.0833333333333335;"/><text fill="#2A9FD6" font-family="&quot;Verdana&quot;" font-size="14.5833" lengthAdjust="spacing" textLength="105.2083" x="368.75" y="882.8471">ui_object_frame</text><rect height="78.3529" rx="4.1667" ry="4.1667" style="stroke:#2A9FD6;stroke-width:2.0833333333333335;fill:none;" width="144.7917" x="160.4167" y="720.8333"/><path d="M294.7917,720.8333 L294.7917,742.3014 L284.375,752.7181 L160.4167,752.7181 " fill="none" style="stroke:#2A9FD6;stroke-width:2.0833333333333335;"/><text fill="#2A9FD6" font-family="&quot;Verdana&quot;" font-size="14.5833" lengthAdjust="spacing" textLength="113.5417" x="168.75" y="742.2221">ui_loading_frame</text><rect height="78.3529" rx="4.1667" ry="4.1667" style="stroke:#2A9FD6;stroke-width:2.0833333333333335;fill:none;" width="57.2917" x="771.875" y="1142.7083"/><path d="M818.75,1142.7083 L818.75,1164.1764 L808.3333,1174.5931 L771.875,1174.5931 " fill="none" style="stroke:#2A9FD6;stroke-width:2.0833333333333335;"/><text fill="#2A9FD6" font-family="&quot;Verdana&quot;" font-size="14.5833" lengthAdjust="spacing" textLength="26.0417" x="780.2083" y="1164.0971">utils</text><rect height="78.3529" rx="4.1667" ry="4.1667" style="stroke:#2A9FD6;stroke-width:2.0833333333333335;fill:none;" width="100" x="891.1458" y="1283.3333"/><path d="M980.7292,1283.3333 L980.7292,1304.8014 L970.3125,1315.2181 L891.1458,1315.2181 " fill="none" style="stroke:#2A9FD6;stroke-width:2.0833333333333335;"/><text fill="#2A9FD6" font-family="&quot;Verdana&quot;" font-size="14.5833" lengthAdjust="spacing" textLength="68.75" x="899.4792" y="1304.7221">array_utils</text><rect height="78.3529" rx="4.1667" ry="4.1667" style="stroke:#2A9FD6;stroke-width:2.0833333333333335;fill:none;" width="111.4583" x="1028.125" y="1283.3333"/><path d="M1129.1667,1283.3333 L1129.1667,1304.8014 L1118.75,1315.2181 L1028.125,1315.2181 " fill="none" style="stroke:#2A9FD6;stroke-width:2.0833333333333335;"/><text fill="#2A9FD6" font-family="&quot;Verdana&quot;" font-size="14.5833" lengthAdjust="spacing" textLength="80.2083" x="1036.4583" y="1304.7221">randomizers</text><rect height="78.3529" rx="4.1667" ry="4.1667" style="stroke:#2A9FD6;stroke-width:2.0833333333333335;fill:none;" width="126.0417" x="753.125" y="1423.9583"/><path d="M868.75,1423.9583 L868.75,1445.4264 L858.3333,1455.8431 L753.125,1455.8431 " fill="none" style="stroke:#2A9FD6;stroke-width:2.0833333333333335;"/><text fill="#2A9FD6" font-family="&quot;Verdana&quot;" font-size="14.5833" lengthAdjust="spacing" textLength="94.7917" x="761.4583" y="1445.3471">type_checking</text><rect height="78.3529" rx="4.1667" ry="4.1667" style="stroke:#2A9FD6;stroke-width:2.0833333333333335;fill:none;" width="51.0417" x="302.0833" y="1283.3333"/><path d="M342.7083,1283.3333 L342.7083,1304.8014 L332.2917,1315.2181 L302.0833,1315.2181 " fill="none" style="stroke:#2A9FD6;stroke-width:2.0833333333333335;"/><text fill="#2A9FD6" font-family="&quot;Verdana&quot;" font-size="14.5833" lengthAdjust="spacing" textLength="19.7917" x="310.4167" y="1304.7221">log</text><rect height="78.3529" rx="4.1667" ry="4.1667" style="stroke:#2A9FD6;stroke-width:2.0833333333333335;fill:none;" width="108.3333" x="746.3542" y="1283.3333"/><path d="M844.2708,1283.3333 L844.2708,1304.8014 L833.8542,1315.2181 L746.3542,1315.2181 " fill="none" style="stroke:#2A9FD6;stroke-width:2.0833333333333335;"/><text fill="#2A9FD6" font-family="&quot;Verdana&quot;" font-size="14.5833" lengthAdjust="spacing" textLength="77.0833" x="754.6875" y="1304.7221">event_mixin</text><rect height="78.3529" rx="4.1667" ry="4.1667" style="stroke:#2A9FD6;stroke-width:2.0833333333333335;fill:none;" width="105.2083" x="530.2083" y="1283.3333"/><path d="M625,1283.3333 L625,1304.8014 L614.5833,1315.2181 L530.2083,1315.2181 " fill="none" style="stroke:#2A9FD6;stroke-width:2.0833333333333335;"/><text fill="#2A9FD6" font-family="&quot;Verdana&quot;" font-size="14.5833" lengthAdjust="spacing" textLength="73.9583" x="538.5417" y="1304.7221">object_utils</text><rect height="78.3529" rx="4.1667" ry="4.1667" style="stroke:#2A9FD6;stroke-width:2.0833333333333335;fill:none;" width="123.9583" x="712.5" y="158.3333"/><path d="M826.0417,158.3333 L826.0417,179.8014 L815.625,190.2181 L712.5,190.2181 " fill="none" style="stroke:#2A9FD6;stroke-width:2.0833333333333335;"/><text fill="#2A9FD6" font-family="&quot;Verdana&quot;" font-size="14.5833" lengthAdjust="spacing" textLength="92.7083" x="720.8333" y="179.7221">visual_objects</text><rect height="78.3529" rx="4.1667" ry="4.1667" style="stroke:#2A9FD6;stroke-width:2.0833333333333335;fill:none;" width="116.6667" x="716.1458" y="298.9583"/><path d="M822.3958,298.9583 L822.3958,320.4264 L811.9792,330.8431 L716.1458,330.8431 " fill="none" style="stroke:#2A9FD6;stroke-width:2.0833333333333335;"/><text fill="#2A9FD6" font-family="&quot;Verdana&quot;" font-size="14.5833" lengthAdjust="spacing" textLength="85.4167" x="724.4792" y="320.3471">visual_object</text><rect height="78.3529" rx="4.1667" ry="4.1667" style="stroke:#2A9FD6;stroke-width:2.0833333333333335;fill:none;" width="180.2083" x="821.875" y="439.5833"/><path d="M991.6667,439.5833 L991.6667,461.0514 L981.25,471.4681 L821.875,471.4681 " fill="none" style="stroke:#2A9FD6;stroke-width:2.0833333333333335;"/><text fill="#2A9FD6" font-family="&quot;Verdana&quot;" font-size="14.5833" lengthAdjust="spacing" textLength="148.9583" x="830.2083" y="460.9721">visual_object_property</text><!--MD5=[e4f599363bfb73238eeb9b8e16c8b877]
link global_context to utils--><path codeLine="25" d="M621.1354,63.7396 C755.6771,80.1875 1057.8125,139.1354 1057.8125,336.9792 C1057.8125,336.9792 1057.8125,336.9792 1057.8125,901.5625 C1057.8125,1031.9063 904.2813,1127.4583 834.4167,1164.1875 " fill="none" id="global_context-to-utils" style="stroke:#2A9FD6;stroke-width:3.125;stroke-dasharray:7.0,7.0;"/><polygon fill="#2A9FD6" points="829.5313,1166.7396,839.7708,1166.1039,834.1505,1164.3334,835.9209,1158.7131,829.5313,1166.7396" style="stroke:#2A9FD6;stroke-width:3.125;"/><!--MD5=[0ee9eaa336625e5ffac465c2c73be687]
link global_context to ui_components--><path codeLine="26" d="M557.8125,95.8958 C557.8125,196.4375 557.8125,468.5625 557.8125,574.8542 " fill="none" id="global_context-to-ui_components" style="stroke:#2A9FD6;stroke-width:3.125;stroke-dasharray:7.0,7.0;"/><polygon fill="#2A9FD6" points="557.8125,580.0938,561.9792,570.7188,557.8125,574.8854,553.6458,570.7188,557.8125,580.0938" style="stroke:#2A9FD6;stroke-width:3.125;"/><!--MD5=[84c40fb1b9f1b6ce9c6184d8d6eedfd7]
link global_context to system--><path codeLine="27" d="M520.1667,96.0313 C502.4167,114.0521 481.1875,135.6146 462.9583,154.1146 " fill="none" id="global_context-to-system" style="stroke:#2A9FD6;stroke-width:3.125;stroke-dasharray:7.0,7.0;"/><polygon fill="#2A9FD6" points="458.8854,158.25,468.4383,154.5092,462.5459,154.5449,462.5102,148.6525,458.8854,158.25" style="stroke:#2A9FD6;stroke-width:3.125;"/><!--MD5=[3d1a51631a1fa2b413276c719b0b6526]
link global_context to electron_ipcRenderer--><path codeLine="28" d="M494.7604,62.1667 C354.8542,75.5833 30.7292,129.1042 30.7292,336.9792 C30.7292,336.9792 30.7292,336.9792 30.7292,1182.8125 C30.7292,1268.5417 63.7188,1364.2917 85.6354,1418.4271 " fill="none" id="global_context-to-electron_ipcRenderer" style="stroke:#2A9FD6;stroke-width:3.125;stroke-dasharray:7.0,7.0;"/><polygon fill="#2A9FD6" points="87.7188,1423.5313,88.0132,1413.2762,85.7409,1418.7131,80.3041,1416.4408,87.7188,1423.5313" style="stroke:#2A9FD6;stroke-width:3.125;"/><!--MD5=[5104a123f78a8816d0db836956f418d6]
link global_context to visual_objects--><path codeLine="29" d="M617.3021,95.8542 C646.0833,114.25 680.6771,136.375 710.0729,155.1667 " fill="none" id="global_context-to-visual_objects" style="stroke:#2A9FD6;stroke-width:3.125;stroke-dasharray:7.0,7.0;"/><polygon fill="#2A9FD6" points="714.7396,158.1562,709.0729,149.6041,710.3474,155.3571,704.5943,156.6316,714.7396,158.1562" style="stroke:#2A9FD6;stroke-width:3.125;"/><!--MD5=[e62436dfa28e8af855b264ea83d97ad6]
reverse link system to system_info--><path codeLine="38" d="M390.6042,241.1354 C351.6667,295.2083 285.1667,387.5417 247.8333,439.3854 " fill="none" id="system-backto-system_info" style="stroke:#2A9FD6;stroke-width:3.125;stroke-dasharray:1.0,3.0;"/><polygon fill="#2A9FD6" points="393.8229,236.6667,384.9694,241.8501,390.7844,240.8968,391.7376,246.7117,393.8229,236.6667" style="stroke:#2A9FD6;stroke-width:3.125;"/><!--MD5=[88daaa8ad5926cd77091d362d6c512b6]
link system_info to electron_ipcRenderer--><path d="M193.2083,517.8333 C159.0313,569.75 104.6875,666.7917 104.6875,758.8542 C104.6875,758.8542 104.6875,758.8542 104.6875,1182.8125 C104.6875,1265.9792 104.6875,1363.0938 104.6875,1418.0833 " fill="none" id="system_info-to-electron_ipcRenderer" style="stroke:#2A9FD6;stroke-width:3.125;stroke-dasharray:7.0,7.0;"/><polygon fill="#2A9FD6" points="104.6875,1423.5938,108.8542,1414.2188,104.6875,1418.3854,100.5208,1414.2188,104.6875,1423.5938" style="stroke:#2A9FD6;stroke-width:3.125;"/><!--MD5=[0c86f8830823ee1bca725889452d6c0c]
reverse link ui_components to ui_base_components--><path codeLine="46" d="M499.2708,661.75 C445.0313,704.4375 368.8229,776.5938 342.1875,861.4583 C331.7917,894.5833 325.9375,908.8958 342.1875,939.5833 C356.0625,965.7917 380.1667,986.4271 404.9479,1002.0104 " fill="none" id="ui_components-backto-ui_base_components" style="stroke:#2A9FD6;stroke-width:3.125;stroke-dasharray:1.0,3.0;"/><polygon fill="#2A9FD6" points="503.4688,658.4688,493.5179,660.9654,499.3672,661.6787,498.6538,667.5279,503.4688,658.4688" style="stroke:#2A9FD6;stroke-width:3.125;"/><!--MD5=[6aa2e5b368302d9a8ca68ddfbee2a7cc]
reverse link ui_components to ui_parameters--><path codeLine="47" d="M557.8125,664.0938 C557.8125,682.2813 557.8125,703.2083 557.8125,720.75 " fill="none" id="ui_components-backto-ui_parameters" style="stroke:#2A9FD6;stroke-width:3.125;stroke-dasharray:1.0,3.0;"/><polygon fill="#2A9FD6" points="557.8125,658.5313,553.6458,667.9063,557.8125,663.7396,561.9792,667.9063,557.8125,658.5313" style="stroke:#2A9FD6;stroke-width:3.125;"/><!--MD5=[28fc445b63de62c48cababa8c7ad3042]
reverse link ui_components to ui_append_help--><path codeLine="48" d="M599.4583,662.6146 C613.9896,679.5104 629.125,699.9063 639.0625,720.8333 C660.6042,766.2083 669.8542,823.875 673.7604,861.2188 " fill="none" id="ui_components-backto-ui_append_help" style="stroke:#2A9FD6;stroke-width:3.125;stroke-dasharray:1.0,3.0;"/><polygon fill="#2A9FD6" points="595.7813,658.3958,598.7979,668.2015,599.2025,662.3229,605.0812,662.7275,595.7813,658.3958" style="stroke:#2A9FD6;stroke-width:3.125;"/><!--MD5=[624edd0af6636f16dc940b772c5369f8]
reverse link ui_components to ui_object_frame--><path codeLine="49" d="M516.7813,662.9167 C502.3229,679.8438 487.0729,700.1875 476.5625,720.8333 C453.4688,766.1875 440.6042,823.8646 434.1563,861.2188 " fill="none" id="ui_components-backto-ui_object_frame" style="stroke:#2A9FD6;stroke-width:3.125;stroke-dasharray:1.0,3.0;"/><polygon fill="#2A9FD6" points="520.4375,658.6875,511.1551,663.0566,517.0321,662.6283,517.4603,668.5053,520.4375,658.6875" style="stroke:#2A9FD6;stroke-width:3.125;"/><!--MD5=[8faf4eb4e037c576011896149f9f5ca8]
reverse link ui_components to ui_loading_frame--><path codeLine="50" d="M487.2292,650.4063 C433.4063,673.3438 359.5417,704.8333 305.2708,727.9688 " fill="none" id="ui_components-backto-ui_loading_frame" style="stroke:#2A9FD6;stroke-width:3.125;stroke-dasharray:1.0,3.0;"/><polygon fill="#2A9FD6" points="492.0417,648.3438,481.7837,648.18,487.2491,650.3828,485.0463,655.8482,492.0417,648.3438" style="stroke:#2A9FD6;stroke-width:3.125;"/><!--MD5=[f4ac936edc65c606174368003eaa6ade]
link ui_base_components to utils--><path codeLine="53" d="M575.3333,1080.2292 C638.5417,1108.4375 721.3333,1145.3854 766.8646,1165.7083 " fill="none" id="ui_base_components-to-utils" style="stroke:#2A9FD6;stroke-width:3.125;stroke-dasharray:7.0,7.0;"/><polygon fill="#2A9FD6" points="771.6979,1167.8646,764.8188,1160.2535,766.9373,1165.752,761.4387,1167.8705,771.6979,1167.8646" style="stroke:#2A9FD6;stroke-width:3.125;"/><!--MD5=[ca63c1fb27fc818c8581268338dcb6a9]
link ui_parameters to utils--><path codeLine="56" d="M621.2188,774.5 C668.5521,788.1354 730.6042,814.1354 764.0625,861.4583 C822.6458,944.3125 816.3854,1070.5938 807.8542,1136.7813 " fill="none" id="ui_parameters-to-utils" style="stroke:#2A9FD6;stroke-width:3.125;stroke-dasharray:7.0,7.0;"/><polygon fill="#2A9FD6" points="807.1354,1142.2188,812.498,1133.4726,807.8199,1137.0556,804.2369,1132.3775,807.1354,1142.2188" style="stroke:#2A9FD6;stroke-width:3.125;"/><!--MD5=[a29ffb38c55d968174fe8ec646daea2b]
link ui_parameters to ui_base_components--><path d="M548.75,799.2917 C540.1667,835.4896 526.8958,891.25 515.1042,939.5833 C510.5521,958.2708 505.4375,978.8854 501.0313,996.5521 " fill="none" id="ui_parameters-to-ui_base_components" style="stroke:#2A9FD6;stroke-width:3.125;stroke-dasharray:7.0,7.0;"/><polygon fill="#2A9FD6" points="499.6875,1001.9375,505.9867,993.8398,500.9402,996.8821,497.898,991.8356,499.6875,1001.9375" style="stroke:#2A9FD6;stroke-width:3.125;"/><!--MD5=[0f1f033aaaf861384b2e5ceef4543ea4]
link ui_parameters to ui_append_help--><path codeLine="58" d="M590.5729,799.1563 C606.0208,817.1771 624.5,838.7396 640.3542,857.2396 " fill="none" id="ui_parameters-to-ui_append_help" style="stroke:#2A9FD6;stroke-width:3.125;stroke-dasharray:7.0,7.0;"/><polygon fill="#2A9FD6" points="643.9063,861.375,640.9504,851.5508,640.5094,857.4269,634.6333,856.9859,643.9063,861.375" style="stroke:#2A9FD6;stroke-width:3.125;"/><!--MD5=[ede98d80698ab2d622d4c2d6070e3d2c]
link ui_append_help to utils--><path codeLine="61" d="M693.5417,939.7917 C716.5208,991.5417 757.3958,1083.6146 781.4271,1137.7188 " fill="none" id="ui_append_help-to-utils" style="stroke:#2A9FD6;stroke-width:3.125;stroke-dasharray:7.0,7.0;"/><polygon fill="#2A9FD6" points="783.5521,1142.5104,783.558,1132.2512,781.4395,1137.7498,775.941,1135.6313,783.5521,1142.5104" style="stroke:#2A9FD6;stroke-width:3.125;"/><!--MD5=[7df7b7e13a37f935b44622fa65bf821f]
link ui_append_help to ui_base_components--><path d="M625.1146,939.7813 C600.4583,958.1042 570.8854,980.0833 545.7083,998.7917 " fill="none" id="ui_append_help-to-ui_base_components" style="stroke:#2A9FD6;stroke-width:3.125;stroke-dasharray:7.0,7.0;"/><polygon fill="#2A9FD6" points="541.3854,1002,551.3945,999.7483,545.5645,998.8917,546.4212,993.0617,541.3854,1002" style="stroke:#2A9FD6;stroke-width:3.125;"/><!--MD5=[74035a5d0399c9da0788ca2be1ce410b]
link ui_object_frame to ui_base_components--><path d="M445.6042,939.7813 C453.4583,957.5 462.8333,978.6354 470.9479,996.9271 " fill="none" id="ui_object_frame-to-ui_base_components" style="stroke:#2A9FD6;stroke-width:3.125;stroke-dasharray:7.0,7.0;"/><polygon fill="#2A9FD6" points="473.1979,1002,473.2039,991.7408,471.0854,997.2393,465.5868,995.1208,473.1979,1002" style="stroke:#2A9FD6;stroke-width:3.125;"/><!--MD5=[f10edcea2e31361732c085f720ff740c]
link ui_loading_frame to ui_base_components--><path d="M233.1979,799.3125 C235.5313,838.6458 244.7396,899.5417 277.6042,939.5833 C308.3333,977.0208 356.2396,1001.3542 398.7917,1016.6771 " fill="none" id="ui_loading_frame-to-ui_base_components" style="stroke:#2A9FD6;stroke-width:3.125;stroke-dasharray:7.0,7.0;"/><polygon fill="#2A9FD6" points="403.9583,1018.5,396.4956,1011.4601,399.0447,1016.7728,393.7321,1019.3219,403.9583,1018.5" style="stroke:#2A9FD6;stroke-width:3.125;"/><!--MD5=[9483d5c4681d055909e59fb9956bfd9c]
reverse link utils to type_checking--><path codeLine="73" d="M768.0938,1216.1354 C752.6042,1234.3958 735.7083,1258.3542 727.6042,1283.3333 C716.8854,1316.3646 715.3333,1328.9792 727.6042,1361.4583 C736.4792,1384.9583 753.625,1406.5208 770.4792,1423.5938 " fill="none" id="utils-backto-type_checking" style="stroke:#2A9FD6;stroke-width:3.125;stroke-dasharray:1.0,3.0;"/><polygon fill="#2A9FD6" points="771.5833,1212.0938,762.3009,1216.4628,768.1779,1216.0345,768.6062,1221.9115,771.5833,1212.0938" style="stroke:#2A9FD6;stroke-width:3.125;"/><!--MD5=[cfc55e45532bbc38773d43db648ce4c0]
reverse link utils to randomizers--><path codeLine="74" d="M834.3333,1198.6979 C875.8438,1218.2813 948.3021,1252.7292 1009.8958,1283.3333 C1015.7188,1286.2292 1021.7708,1289.2708 1027.8021,1292.3333 " fill="none" id="utils-backto-randomizers" style="stroke:#2A9FD6;stroke-width:3.125;stroke-dasharray:1.0,3.0;"/><polygon fill="#2A9FD6" points="829.4271,1196.3854,836.1391,1204.1443,834.1407,1198.601,839.684,1196.6025,829.4271,1196.3854" style="stroke:#2A9FD6;stroke-width:3.125;"/><!--MD5=[df7d2690f84641b5409d040c52281b1b]
reverse link utils to array_utils--><path codeLine="75" d="M833.3646,1215.1771 C854.0417,1235.5417 880.8229,1261.9271 902.5208,1283.3021 " fill="none" id="utils-backto-array_utils" style="stroke:#2A9FD6;stroke-width:3.125;stroke-dasharray:1.0,3.0;"/><polygon fill="#2A9FD6" points="829.3229,1211.1875,833.0637,1220.7404,833.028,1214.848,838.9205,1214.8122,829.3229,1211.1875" style="stroke:#2A9FD6;stroke-width:3.125;"/><!--MD5=[5b002819e077505629333bf8ed6e5074]
reverse link utils to log--><path codeLine="76" d="M766.4479,1192.7917 C676.25,1219.2188 432.7813,1290.5417 353.1771,1313.8646 " fill="none" id="utils-backto-log" style="stroke:#2A9FD6;stroke-width:3.125;stroke-dasharray:1.0,3.0;"/><polygon fill="#2A9FD6" points="771.6458,1191.2708,761.4743,1189.9319,766.651,1192.7469,763.8361,1197.9236,771.6458,1191.2708" style="stroke:#2A9FD6;stroke-width:3.125;"/><!--MD5=[c9105b50222ba0637f8ba4de9daf9e46]
reverse link utils to event_mixin--><path codeLine="77" d="M800.5208,1226.5938 C800.5208,1244.7813 800.5208,1265.7083 800.5208,1283.25 " fill="none" id="utils-backto-event_mixin" style="stroke:#2A9FD6;stroke-width:3.125;stroke-dasharray:1.0,3.0;"/><polygon fill="#2A9FD6" points="800.5208,1221.0313,796.3542,1230.4063,800.5208,1226.2396,804.6875,1230.4063,800.5208,1221.0313" style="stroke:#2A9FD6;stroke-width:3.125;"/><!--MD5=[7735e3c9acf9fc4204c80ce485314547]
reverse link utils to object_utils--><path codeLine="78" d="M767.0208,1204.125 C732.0208,1226.4063 676.6146,1261.6667 635.6979,1287.6979 " fill="none" id="utils-backto-object_utils" style="stroke:#2A9FD6;stroke-width:3.125;stroke-dasharray:1.0,3.0;"/><polygon fill="#2A9FD6" points="771.6146,1201.2083,761.4693,1202.733,767.2224,1204.0074,765.9479,1209.7605,771.6146,1201.2083" style="stroke:#2A9FD6;stroke-width:3.125;"/><!--MD5=[7274530af6157fe8d0aa7a38cdc54757]
link array_utils to type_checking--><path codeLine="81" d="M906.6563,1361.6563 C890.3958,1379.6771 870.9479,1401.2396 854.2604,1419.7396 " fill="none" id="array_utils-to-type_checking" style="stroke:#2A9FD6;stroke-width:3.125;stroke-dasharray:7.0,7.0;"/><polygon fill="#2A9FD6" points="850.5208,1423.875,859.8894,1419.694,854.005,1420.0037,853.6953,1414.1193,850.5208,1423.875" style="stroke:#2A9FD6;stroke-width:3.125;"/><!--MD5=[13ded8bcb40aeaddd94a59b63afb665a]
link randomizers to type_checking--><path codeLine="84" d="M1028.0625,1352.3125 C986.2188,1373.9688 928.7292,1403.7188 884.1875,1426.7604 " fill="none" id="randomizers-to-type_checking" style="stroke:#2A9FD6;stroke-width:3.125;stroke-dasharray:7.0,7.0;"/><polygon fill="#2A9FD6" points="879.375,1429.2604,889.6161,1428.6507,884.0003,1426.866,885.785,1421.2502,879.375,1429.2604" style="stroke:#2A9FD6;stroke-width:3.125;"/><!--MD5=[f3e5ea696b454018f9f7f19497e567c7]
link log to electron_ipcRenderer--><path d="M302.0313,1339.3333 C270.1875,1359.125 214.6146,1393.6563 170.5417,1421.0521 " fill="none" id="log-to-electron_ipcRenderer" style="stroke:#2A9FD6;stroke-width:3.125;stroke-dasharray:7.0,7.0;"/><polygon fill="#2A9FD6" points="166.0417,1423.8438,176.2021,1422.4237,170.4625,1421.09,171.7962,1415.3504,166.0417,1423.8438" style="stroke:#2A9FD6;stroke-width:3.125;"/><!--MD5=[d87a6e65c0be786d5906c822ca0831bc]
link object_utils to type_checking--><path d="M635.4688,1354.6979 C668.7813,1374.4792 712.1875,1400.25 748.1042,1421.5833 " fill="none" id="object_utils-to-type_checking" style="stroke:#2A9FD6;stroke-width:3.125;stroke-dasharray:7.0,7.0;"/><polygon fill="#2A9FD6" points="752.8958,1424.4271,746.9472,1416.0686,748.4127,1421.7759,742.7053,1423.2415,752.8958,1424.4271" style="stroke:#2A9FD6;stroke-width:3.125;"/><!--MD5=[141934bd0f39bbea1aedeac36430e141]
reverse link visual_objects to visual_object--><path codeLine="99" d="M774.4792,242.2188 C774.4792,260.4063 774.4792,281.3333 774.4792,298.875 " fill="none" id="visual_objects-backto-visual_object" style="stroke:#2A9FD6;stroke-width:3.125;stroke-dasharray:1.0,3.0;"/><polygon fill="#2A9FD6" points="774.4792,236.6563,770.3125,246.0313,774.4792,241.8646,778.6458,246.0313,774.4792,236.6563" style="stroke:#2A9FD6;stroke-width:3.125;"/><!--MD5=[886d204d03cf87123193cb93eb3d1946]
reverse link visual_objects to visual_object_property--><path codeLine="100" d="M811.9167,240.7917 C825.7396,257.9792 840.6771,278.5625 851.5625,298.9583 C875.9896,344.7396 893.3333,402.3125 902.9896,439.5313 " fill="none" id="visual_objects-backto-visual_object_property" style="stroke:#2A9FD6;stroke-width:3.125;stroke-dasharray:1.0,3.0;"/><polygon fill="#2A9FD6" points="808.4271,236.4896,811.1051,246.3931,811.7114,240.5318,817.5727,241.1382,808.4271,236.4896" style="stroke:#2A9FD6;stroke-width:3.125;"/><!--MD5=[6d2ac9e500a1211ca75c131135dcbb35]
link visual_object to ui_components--><path d="M744.8021,377.2917 C704.4792,429.25 632.6042,521.8542 590.6875,575.875 " fill="none" id="visual_object-to-ui_components" style="stroke:#2A9FD6;stroke-width:3.125;stroke-dasharray:7.0,7.0;"/><polygon fill="#2A9FD6" points="587.4688,580.0104,596.5061,575.1547,590.6602,575.8944,589.9205,570.0484,587.4688,580.0104" style="stroke:#2A9FD6;stroke-width:3.125;"/><!--MD5=[ae78cbda69f1f8def50a3263b255e145]
link visual_object to utils--><path d="M779.4896,377.0833 C792.5625,478.4271 827.4688,763.5417 839.0625,1002.0833 C840.75,1036.7604 845.3854,1046.0625 839.0625,1080.2083 C835.4583,1099.6979 828.2188,1120.2813 820.9896,1137.7188 " fill="none" id="visual_object-to-utils" style="stroke:#2A9FD6;stroke-width:3.125;stroke-dasharray:7.0,7.0;"/><polygon fill="#2A9FD6" points="818.9479,1142.5521,826.4339,1135.537,820.9744,1137.7541,818.7572,1132.2946,818.9479,1142.5521" style="stroke:#2A9FD6;stroke-width:3.125;"/><!--MD5=[6f29fab2e3234ef1efec8d3fc85fc0db]
link visual_object to visual_object_property--><path codeLine="105" d="M800.3958,377.2813 C816.8542,395.4583 838.3542,417.2188 858.2083,435.8229 " fill="none" id="visual_object-to-visual_object_property" style="stroke:#2A9FD6;stroke-width:3.125;stroke-dasharray:7.0,7.0;"/><polygon fill="#2A9FD6" points="862.1563,439.5,858.1469,430.0566,858.3492,435.9457,852.4601,436.148,862.1563,439.5" style="stroke:#2A9FD6;stroke-width:3.125;"/><!--MD5=[41e3442f0ba59022b7ed544f22b4b339]
link visual_object_property to visual_object--><path d="M886.875,439.5 C870.5417,421.3542 849.0521,399.5833 829.1042,380.9688 " fill="none" id="visual_object_property-to-visual_object" style="stroke:#2A9FD6;stroke-width:3.125;stroke-dasharray:7.0,7.0;"/><polygon fill="#2A9FD6" points="825.1354,377.2813,829.1828,386.7084,828.9568,380.8201,834.845,380.5941,825.1354,377.2813" style="stroke:#2A9FD6;stroke-width:3.125;"/><!--MD5=[bad2325fa60882b4a34da1631139fba4]
link visual_object_property to utils--><path d="M920.1563,517.8646 C930.9063,571.4375 948.4375,672.0938 948.4375,758.8542 C948.4375,758.8542 948.4375,758.8542 948.4375,901.5625 C948.4375,983.6458 942.5104,1009.0625 901.5625,1080.2083 C884.3646,1110.0833 855.9583,1137.2188 833.6354,1155.7396 " fill="none" id="visual_object_property-to-utils" style="stroke:#2A9FD6;stroke-width:3.125;stroke-dasharray:7.0,7.0;"/><polygon fill="#2A9FD6" points="829.5417,1159.1042,839.4344,1156.3864,833.5707,1155.8036,834.1535,1149.94,829.5417,1159.1042" style="stroke:#2A9FD6;stroke-width:3.125;"/><!--MD5=[e02c1c7f6e7729f031a8745f9bf0375d]
link visual_object_property to ui_components--><path d="M821.6875,515.0104 C761.7083,538.4688 684.0833,568.8333 628.5729,590.5521 " fill="none" id="visual_object_property-to-ui_components" style="stroke:#2A9FD6;stroke-width:3.125;stroke-dasharray:7.0,7.0;"/><polygon fill="#2A9FD6" points="623.6146,592.4896,633.8626,592.9689,628.4677,590.599,630.8376,585.204,623.6146,592.4896" style="stroke:#2A9FD6;stroke-width:3.125;"/><!--MD5=[fc4ace5fd8d79a5d4e6c5c95cf69ac7f]
@startuml modules

'Wav2Bar - Free software for creating audio visualization (motion design) videos
'Copyright (C) 2022  Picorims <picorims.contact@gmail.com>

'This program is free software: you can redistribute it and/or modify
'it under the terms of the GNU General Public License as published by
'the Free Software Foundation, either version 3 of the License, or
'any later version.

'This program is distributed in the hope that it will be useful,
'but WITHOUT ANY WARRANTY; without even the implied warranty of
'MERCHANTABILITY or FITNESS FOR A PARTICULAR PURPOSE.  See the
'GNU General Public License for more details.

'You should have received a copy of the GNU General Public License
'along with this program.  If not, see <https://www.gnu.org/licenses/>.

!theme cyborg-outline
skinparam BackgroundColor #222222
skinparam PackageStyle frame

'package: dotted = export, otherwise = import

package "global_context" {}
global_context ..> utils
global_context ..> ui_components
global_context ..> system
global_context ..> electron_ipcRenderer
global_context ..> visual_objects



package "electron_ipcRenderer" {}



package "system" {}
system <.[dotted]. system_info

package "system_info" {}
system_info ..> electron_ipcRenderer



package "ui_components" {}
ui_components <.[dotted]. ui_base_components
ui_components <.[dotted]. ui_parameters
ui_components <.[dotted]. ui_append_help
ui_components <.[dotted]. ui_object_frame
ui_components <.[dotted]. ui_loading_frame

package "ui_base_components" {}
ui_base_components ..> utils

package "ui_parameters" {}
ui_parameters ..> utils
ui_parameters ..> ui_base_components
ui_parameters ..> ui_append_help

package "ui_append_help" {}
ui_append_help ..> utils
ui_append_help ..> ui_base_components

package "ui_object_frame" {}
ui_object_frame ..> ui_base_components

package "ui_loading_frame" {}
ui_loading_frame ..> ui_base_components



package "utils" {}
utils <.[dotted]. type_checking
utils <.[dotted]. randomizers
utils <.[dotted]. array_utils
utils <.[dotted]. log
utils <.[dotted]. event_mixin
utils <.[dotted]. object_utils

package "array_utils" {}
array_utils ..> type_checking

package "randomizers" {}
randomizers ..> type_checking

package "type_checking" {}

package "log" {}
log ..> electron_ipcRenderer

package "event_mixin" {}

package "object_utils" {}
object_utils ..> type_checking



package "visual_objects" {}
visual_objects <.[dotted]. visual_object
visual_objects <.[dotted]. visual_object_property

package "visual_object" {}
visual_object ..> ui_components
visual_object ..> utils
visual_object ..> visual_object_property

package "visual_object_property" {}
visual_object_property ..> visual_object
visual_object_property ..> utils
visual_object_property ..> ui_components

@enduml

@startuml modules








skinparam backgroundColor transparent
skinparam useBetaStyle false






<style>
  root {
    BackgroundColor transparent
    FontColor #2A9FD6
    HyperLinkColor #fd7e14
    LineColor #55B2DE
    LineThickness 1
    Margin 10
    Padding 6
    Shadowing 0.0
  }
  node {
   Padding 15
   roundcorner 20
   BackgroundColor transparent
  }
  caption {
    LineThickness 0
  }
  footer {
    LineThickness 0
  }
  groupHeader {
    BackgroundColor #555
    FontColor #9933CC
    FontStyle bold
  }
  header {
    LineThickness 0
  }
  referenceHeader {
    BackgroundColor transparent
    FontColor #ADAFAE
    FontStyle bold
  }
  separator {
    BackgroundColor #FFF
    FontColor transparent
    FontStyle bold
  }
  title {
	FontSize 20
	BorderRoundCorner            8
	BorderThickness 	         1
	BackgroundColor  transparent
	FontColor #2A9FD6
	BorderColor #555
  }
  nwdiagDiagram {
	network {
			FontColor #2A9FD6
	BorderColor #55B2DE
	BackgroundColor transparent    
		LineColor #2A9FD6
		LineThickness 1.0
		FontColor #227FAB
	}
	server {
			FontColor #2A9FD6
	BorderColor #55B2DE
	BackgroundColor transparent
	}
	arrow {
		FontColor #227FAB
		LineColor #227FAB
	}
	group {
		BackGroundColor #222
		LineColor #4E4E4E
		LineThickness 2.0
		Margin 5
		Padding 5
	}
  }
  ganttDiagram {
	task {
			FontColor #2A9FD6
	BorderColor #55B2DE
	BackgroundColor transparent
		LineColor #2A9FD6
		Margin 10
		Padding 6
	}
	note {
		FontColor #9933CC
		LineColor #AD5CD6
		BackGroundColor transparent
	}
	separator {
		LineColor #777777
		BackGroundColor transparent
		FontColor #777777
	}
	milestone {
		FontColor #9933CC
		FontSize 16
		FontStyle italic
		BackGroundColor #555
		LineColor #777777
	}
	timeline {
		BackgroundColor #555
		FontColor #777777
	}
	closed {
		BackgroundColor #FFA033
		FontColor #FF8800
	}
  }
</style>
skinparam defaultFontName       "Verdana"
skinparam defaultFontSize       12
skinparam dpi                   100
skinparam shadowing             false
skinparam roundcorner           8
skinparam ParticipantPadding    40
skinparam BoxPadding            40
skinparam Padding               5
skinparam ArrowColor            #ADAFAE
skinparam stereotype {
    CBackgroundColor #777777
    CBorderColor #444444
    ABackgroundColor #5F8F00
    ABorderColor #92C233
    IBackgroundColor #a30000
    IBorderColor #D63333
    EBackgroundColor #cc6d00
    EBorderColor #FFA033
    NBackgroundColor #7a29a3
    NBorderColor #AD5CD6
}
skinparam title {
	FontColor	                 #2A9FD6
	BorderColor	                 #777777
	FontSize	    	         20
	BorderRoundCorner            8
	BorderThickness 	         1
	BackgroundColor              transparent
}

skinparam legend {
	BackgroundColor transparent
	BorderColor #777777
	FontColor #ADAFAE
}

skinparam swimlane {
	BorderColor #9933CC
	BorderThickness 2
	TitleBackgroundColor  #444444-#555
	TitleFontColor #2A9FD6
}


skinparam activity {
		FontColor #2A9FD6
	BorderColor #55B2DE
	BackgroundColor transparent
	BarColor #77B300
	StartColor #9933CC
	EndColor #9933CC
	DiamondBackgroundColor transparent
  	DiamondBorderColor #777777
  	DiamondFontColor #777777
}


skinparam participant {
		FontColor #2A9FD6
	BorderColor #55B2DE
	BackgroundColor transparent
	ParticipantBorderThickness 2
}


skinparam actor {
		FontColor #2A9FD6
	BorderColor #55B2DE
	BackgroundColor transparent
	FontColor #2A9FD6
}


skinparam arrow {
	Thickness 3
	Color #2A9FD6
	FontColor #FFF
}


skinparam sequence {
	BorderColor #2A9FD6
	TitleFontColor #2A9FD6
	BackgroundColor transparent
	StartColor #2A9FD6
	EndColor #2A9FD6
	BoxBackgroundColor transparent
	BoxBorderColor #ADAFAE
	BoxFontColor #ADAFAE
	DelayFontColor #ADAFAE
	LifeLineBorderColor #555
	LifeLineBorderThickness 2
	LifeLineBackgroundColor transparent
	GroupBorderColor #ADAFAE
	GroupFontColor #ADAFAE
	GroupHeaderFontColor #9933CC
	GroupBackgroundColor transparent
	GroupHeaderBackgroundColor transparent
	DividerBackgroundColor transparent
    DividerBorderColor #ADAFAE
    DividerBorderThickness 2
    DividerFontColor #ADAFAE
	ReferenceBackgroundColor transparent
	ReferenceBorderColor #ADAFAE
	ReferenceFontColor #ADAFAE
	ReferenceHeaderFontColor #9933CC
	ReferenceHeaderBackgroundColor transparent
	StereotypeFontColor #2A9FD6
}


skinparam partition {
	BorderColor #2A9FD6
	FontColor #2A9FD6
	BackgroundColor transparent
}


skinparam collections {
		FontColor #2A9FD6
	BorderColor #55B2DE
	BackgroundColor transparent
}


skinparam control {
		FontColor #2A9FD6
	BorderColor #55B2DE
	BackgroundColor transparent
	FontColor #2A9FD6
}


skinparam entity {
		FontColor #2A9FD6
	BorderColor #55B2DE
	BackgroundColor transparent
	FontColor #2A9FD6
}


skinparam boundary {
		FontColor #2A9FD6
	BorderColor #55B2DE
	BackgroundColor transparent
	FontColor #2A9FD6
}


skinparam agent {
	BackgroundColor transparent
	BorderColor #cc6d00
	FontColor #ADAFAE
}


skinparam note {
	BorderThickness 1
	BackgroundColor transparent
	BorderColor #AD5CD6
	FontColor #AD5CD6
}


skinparam artifact {
	BackgroundColor transparent
	BorderColor #BDBFBE
	FontColor #BDBFBE
}


skinparam component {
		FontColor #2A9FD6
	BorderColor #55B2DE
	BackgroundColor transparent
}


skinparam interface {
	BackgroundColor  transparent
	BorderColor  #CC0000
	FontColor #ADAFAE
}


skinparam storage {
	BackgroundColor transparent
  	BorderColor #FFA033
	FontColor #FF8800
}


skinparam node {
	BackgroundColor  transparent
	BorderColor #ADAFAE
	FontColor #ADAFAE
}


skinparam cloud {
	BackgroundColor transparent
	BorderColor #F2FCFE
	FontColor #ADAFAE
}


skinparam database {
		FontColor #2A9FD6
	BorderColor #55B2DE
	BackgroundColor transparent
	FontColor #2A9FD6
}



skinparam class {
		FontColor #2A9FD6
	BorderColor #55B2DE
	BackgroundColor transparent
        FontColor #222
	HeaderBackgroundColor #227FAB
	StereotypeFontColor #ADAFAE
	BorderThickness 1
	AttributeFontColor #ADAFAE
	AttributeFontSize 11
}


skinparam object {
		FontColor #2A9FD6
	BorderColor #55B2DE
	BackgroundColor transparent
	StereotypeFontColor #ADAFAE
	BorderThickness 1
	AttributeFontColor #777777
	AttributeFontSize 11
}


skinparam usecase {
		FontColor #2A9FD6
	BorderColor #55B2DE
	BackgroundColor transparent
	BorderThickness 2
	StereotypeFontColor #2A9FD6
}


skinparam rectangle {
		FontColor #2A9FD6
	BorderColor #55B2DE
	BackgroundColor transparent
	BorderThickness 2
	StereotypeFontColor #2A9FD6
}


skinparam package {
	BackgroundColor transparent
  	BorderColor #2A9FD6
	FontColor #2A9FD6
	BorderThickness 2
}


skinparam folder {
	BackgroundColor transparent
  	BorderColor #FF8800
	FontColor #FF8800
	BorderThickness 2
}


skinparam frame {
	BackgroundColor transparent
  	BorderColor #9933CC
	FontColor #9933CC
	BorderThickness 2
}


skinparam state {
		FontColor #2A9FD6
	BorderColor #55B2DE
	BackgroundColor transparent
	StartColor #9933CC
	EndColor #9933CC
	AttributeFontColor #777777
	AttributeFontSize 11
}


skinparam queue {
		FontColor #2A9FD6
	BorderColor #55B2DE
	BackgroundColor transparent
}


skinparam card {
	BackgroundColor transparent
	BorderColor #9933CC
	FontColor #9933CC
}


skinparam file {
	BackgroundColor transparent
	BorderColor #555
	FontColor #555
}


skinparam stack {
		FontColor #2A9FD6
	BorderColor #55B2DE
	BackgroundColor transparent
}
skinparam BackgroundColor #222222
skinparam PackageStyle frame


package "global_context" {}
global_context ..> utils
global_context ..> ui_components
global_context ..> system
global_context ..> electron_ipcRenderer
global_context ..> visual_objects



package "electron_ipcRenderer" {}



package "system" {}
system <.[dotted]. system_info

package "system_info" {}
system_info ..> electron_ipcRenderer



package "ui_components" {}
ui_components <.[dotted]. ui_base_components
ui_components <.[dotted]. ui_parameters
ui_components <.[dotted]. ui_append_help
ui_components <.[dotted]. ui_object_frame
ui_components <.[dotted]. ui_loading_frame

package "ui_base_components" {}
ui_base_components ..> utils

package "ui_parameters" {}
ui_parameters ..> utils
ui_parameters ..> ui_base_components
ui_parameters ..> ui_append_help

package "ui_append_help" {}
ui_append_help ..> utils
ui_append_help ..> ui_base_components

package "ui_object_frame" {}
ui_object_frame ..> ui_base_components

package "ui_loading_frame" {}
ui_loading_frame ..> ui_base_components



package "utils" {}
utils <.[dotted]. type_checking
utils <.[dotted]. randomizers
utils <.[dotted]. array_utils
utils <.[dotted]. log
utils <.[dotted]. event_mixin
utils <.[dotted]. object_utils

package "array_utils" {}
array_utils ..> type_checking

package "randomizers" {}
randomizers ..> type_checking

package "type_checking" {}

package "log" {}
log ..> electron_ipcRenderer

package "event_mixin" {}

package "object_utils" {}
object_utils ..> type_checking



package "visual_objects" {}
visual_objects <.[dotted]. visual_object
visual_objects <.[dotted]. visual_object_property

package "visual_object" {}
visual_object ..> ui_components
visual_object ..> utils
visual_object ..> visual_object_property

package "visual_object_property" {}
visual_object_property ..> visual_object
visual_object_property ..> utils
visual_object_property ..> ui_components

@enduml

PlantUML version 1.2022.0(Tue Jan 11 17:16:42 CET 2022)
(GPL source distribution)
Java Runtime: Java(TM) SE Runtime Environment
JVM: Java HotSpot(TM) 64-Bit Server VM
Default Encoding: Cp1252
Language: fr
Country: FR
--></g></svg>