<!--MIT License - Copyright (c) 2020-2021 Picorims-->

<?xml version="1.0" encoding="UTF-8" standalone="no"?><svg xmlns="http://www.w3.org/2000/svg" xmlns:xlink="http://www.w3.org/1999/xlink" contentScriptType="application/ecmascript" contentStyleType="text/css" height="1026.0417px" preserveAspectRatio="none" style="width:658px;height:1026px;background:#222222;" version="1.1" viewBox="0 0 658 1026" width="658.3333px" zoomAndPan="magnify"><defs/><g><rect fill="#222222" height="72.05" style="stroke:#2A9FD6;stroke-width:2.0833333333333335;" width="133.3333" x="220.8333" y="7.2917"/><path d="M343.75,7.2917 L343.75,25.6083 L333.3333,36.025 L220.8333,36.025 " fill="none" style="stroke:#2A9FD6;stroke-width:2.0833333333333335;"/><text fill="#2A9FD6" font-family="Verdana" font-size="12.5" font-weight="bold" lengthAdjust="spacing" textLength="102.0833" x="229.1667" y="26.1088">global_context</text><rect fill="#222222" height="72.05" style="stroke:#2A9FD6;stroke-width:2.0833333333333335;" width="80.2083" x="117.1875" y="141.6667"/><path d="M186.9792,141.6667 L186.9792,159.9833 L176.5625,170.4 L117.1875,170.4 " fill="none" style="stroke:#2A9FD6;stroke-width:2.0833333333333335;"/><text fill="#2A9FD6" font-family="Verdana" font-size="12.5" font-weight="bold" lengthAdjust="spacing" textLength="48.9583" x="125.5208" y="160.4838">system</text><rect fill="#222222" height="72.05" style="stroke:#2A9FD6;stroke-width:2.0833333333333335;" width="180.2083" x="29.6875" y="947.9167"/><path d="M199.4792,947.9167 L199.4792,966.2333 L189.0625,976.65 L29.6875,976.65 " fill="none" style="stroke:#2A9FD6;stroke-width:2.0833333333333335;"/><text fill="#2A9FD6" font-family="Verdana" font-size="12.5" font-weight="bold" lengthAdjust="spacing" textLength="148.9583" x="38.0208" y="966.7338">electron_ipcRenderer</text><rect fill="#222222" height="72.05" style="stroke:#2A9FD6;stroke-width:2.0833333333333335;" width="115.625" x="61.9792" y="410.4167"/><path d="M167.1875,410.4167 L167.1875,428.7333 L156.7708,439.15 L61.9792,439.15 " fill="none" style="stroke:#2A9FD6;stroke-width:2.0833333333333335;"/><text fill="#2A9FD6" font-family="Verdana" font-size="12.5" font-weight="bold" lengthAdjust="spacing" textLength="84.375" x="70.3125" y="429.2338">system_info</text><rect fill="#222222" height="72.05" style="stroke:#2A9FD6;stroke-width:2.0833333333333335;" width="135.4167" x="242.7083" y="141.6667"/><path d="M367.7083,141.6667 L367.7083,159.9833 L357.2917,170.4 L242.7083,170.4 " fill="none" style="stroke:#2A9FD6;stroke-width:2.0833333333333335;"/><text fill="#2A9FD6" font-family="Verdana" font-size="12.5" font-weight="bold" lengthAdjust="spacing" textLength="104.1667" x="251.0417" y="160.4838">ui_components</text><rect fill="#222222" height="72.05" style="stroke:#2A9FD6;stroke-width:2.0833333333333335;" width="177.0833" x="344.7917" y="544.7917"/><path d="M511.4583,544.7917 L511.4583,563.1083 L501.0417,573.525 L344.7917,573.525 " fill="none" style="stroke:#2A9FD6;stroke-width:2.0833333333333335;"/><text fill="#2A9FD6" font-family="Verdana" font-size="12.5" font-weight="bold" lengthAdjust="spacing" textLength="145.8333" x="353.125" y="563.6088">ui_base_components</text><rect fill="#222222" height="72.05" style="stroke:#2A9FD6;stroke-width:2.0833333333333335;" width="132.2917" x="302.6042" y="276.0417"/><path d="M424.4792,276.0417 L424.4792,294.3583 L414.0625,304.775 L302.6042,304.775 " fill="none" style="stroke:#2A9FD6;stroke-width:2.0833333333333335;"/><text fill="#2A9FD6" font-family="Verdana" font-size="12.5" font-weight="bold" lengthAdjust="spacing" textLength="101.0417" x="310.9375" y="294.8588">ui_parameters</text><rect fill="#222222" height="72.05" style="stroke:#2A9FD6;stroke-width:2.0833333333333335;" width="141.6667" x="436.4583" y="410.4167"/><path d="M567.7083,410.4167 L567.7083,428.7333 L557.2917,439.15 L436.4583,439.15 " fill="none" style="stroke:#2A9FD6;stroke-width:2.0833333333333335;"/><text fill="#2A9FD6" font-family="Verdana" font-size="12.5" font-weight="bold" lengthAdjust="spacing" textLength="110.4167" x="444.7917" y="429.2338">ui_append_help</text><rect fill="#222222" height="72.05" style="stroke:#2A9FD6;stroke-width:2.0833333333333335;" width="60.4167" x="403.125" y="679.1667"/><path d="M453.125,679.1667 L453.125,697.4833 L442.7083,707.9 L403.125,707.9 " fill="none" style="stroke:#2A9FD6;stroke-width:2.0833333333333335;"/><text fill="#2A9FD6" font-family="Verdana" font-size="12.5" font-weight="bold" lengthAdjust="spacing" textLength="29.1667" x="411.4583" y="697.9838">utils</text><rect fill="#222222" height="72.05" style="stroke:#2A9FD6;stroke-width:2.0833333333333335;" width="107.2917" x="379.6875" y="813.5417"/><path d="M476.5625,813.5417 L476.5625,831.8583 L466.1458,842.275 L379.6875,842.275 " fill="none" style="stroke:#2A9FD6;stroke-width:2.0833333333333335;"/><text fill="#2A9FD6" font-family="Verdana" font-size="12.5" font-weight="bold" lengthAdjust="spacing" textLength="76.0417" x="388.0208" y="832.3588">array_utils</text><rect fill="#222222" height="72.05" style="stroke:#2A9FD6;stroke-width:2.0833333333333335;" width="116.6667" x="523.9583" y="813.5417"/><path d="M630.2083,813.5417 L630.2083,831.8583 L619.7917,842.275 L523.9583,842.275 " fill="none" style="stroke:#2A9FD6;stroke-width:2.0833333333333335;"/><text fill="#2A9FD6" font-family="Verdana" font-size="12.5" font-weight="bold" lengthAdjust="spacing" textLength="85.4167" x="532.2917" y="832.3588">randomizers</text><rect fill="#222222" height="72.05" style="stroke:#2A9FD6;stroke-width:2.0833333333333335;" width="131.25" x="367.7083" y="947.9167"/><path d="M488.5417,947.9167 L488.5417,966.2333 L478.125,976.65 L367.7083,976.65 " fill="none" style="stroke:#2A9FD6;stroke-width:2.0833333333333335;"/><text fill="#2A9FD6" font-family="Verdana" font-size="12.5" font-weight="bold" lengthAdjust="spacing" textLength="100" x="376.0417" y="966.7338">type_checking</text><rect fill="#222222" height="72.05" style="stroke:#2A9FD6;stroke-width:2.0833333333333335;" width="52.0833" x="195.8333" y="813.5417"/><path d="M237.5,813.5417 L237.5,831.8583 L227.0833,842.275 L195.8333,842.275 " fill="none" style="stroke:#2A9FD6;stroke-width:2.0833333333333335;"/><text fill="#2A9FD6" font-family="Verdana" font-size="12.5" font-weight="bold" lengthAdjust="spacing" textLength="20.8333" x="204.1667" y="832.3588">log</text><!--MD5=[e4f599363bfb73238eeb9b8e16c8b877]
link global_context to utils--><path codeLine="8" d="M354.1771,60.5208 C459.1354,90.5417 651.0417,165.3438 651.0417,310.9375 C651.0417,310.9375 651.0417,310.9375 651.0417,447.3958 C651.0417,530.4479 625.2396,553.0208 571.875,616.6667 C542.9167,651.2083 498.9583,679.3021 468.3542,696.2917 " fill="none" id="global_context-to-utils" style="stroke:#2A9FD6;stroke-width:3.125;stroke-dasharray:7.0,7.0;"/><polygon fill="#2A9FD6" points="463.5625,698.9167,473.7868,698.0713,468.1315,696.4164,469.7864,690.761,463.5625,698.9167" style="stroke:#2A9FD6;stroke-width:3.125;"/><!--MD5=[0ee9eaa336625e5ffac465c2c73be687]
link global_context to ui_components--><path codeLine="9" d="M293.5833,79.375 C296.5833,96.7188 300.2292,117.7396 303.3542,135.7917 " fill="none" id="global_context-to-ui_components" style="stroke:#2A9FD6;stroke-width:3.125;stroke-dasharray:7.0,7.0;"/><polygon fill="#2A9FD6" points="304.3021,141.2917,306.8288,131.3485,303.4241,136.1579,298.6147,132.7532,304.3021,141.2917" style="stroke:#2A9FD6;stroke-width:3.125;"/><!--MD5=[84c40fb1b9f1b6ce9c6184d8d6eedfd7]
link global_context to system--><path codeLine="10" d="M252.9479,79.375 C235.4375,97.1667 214.1146,118.8333 196.0417,137.1875 " fill="none" id="global_context-to-system" style="stroke:#2A9FD6;stroke-width:3.125;stroke-dasharray:7.0,7.0;"/><polygon fill="#2A9FD6" points="192,141.2917,201.5454,137.5317,195.653,137.5792,195.6055,131.6869,192,141.2917" style="stroke:#2A9FD6;stroke-width:3.125;"/><!--MD5=[3d1a51631a1fa2b413276c719b0b6526]
link global_context to electron_ipcRenderer--><path codeLine="11" d="M220.8021,67.3333 C181.6875,83.4271 133.3646,108.0833 98.9583,141.6667 C37.5729,201.5833 6.25,225.1667 6.25,310.9375 C6.25,310.9375 6.25,310.9375 6.25,716.1458 C6.25,802.6042 57.3958,893.125 91.0313,943.3125 " fill="none" id="global_context-to-electron_ipcRenderer" style="stroke:#2A9FD6;stroke-width:3.125;stroke-dasharray:7.0,7.0;"/><polygon fill="#2A9FD6" points="94.0313,947.75,92.2337,937.6495,91.1148,943.4348,85.3294,942.3158,94.0313,947.75" style="stroke:#2A9FD6;stroke-width:3.125;"/><!--MD5=[e62436dfa28e8af855b264ea83d97ad6]
reverse link system to system_info--><path codeLine="14" d="M151.6146,219.0104 C144.3021,271.0417 131.6875,360.6979 124.7396,410.0938 " fill="none" id="system-backto-system_info" style="stroke:#2A9FD6;stroke-width:3.125;stroke-dasharray:1.0,3.0;"/><polygon fill="#2A9FD6" points="152.3542,213.7813,146.9141,222.4794,151.6239,218.9381,155.1651,223.6479,152.3542,213.7813" style="stroke:#2A9FD6;stroke-width:3.125;"/><!--MD5=[88daaa8ad5926cd77091d362d6c512b6]
link system_info to electron_ipcRenderer--><path d="M119.7917,482.5208 C119.7917,577.9479 119.7917,841.5521 119.7917,942.6354 " fill="none" id="system_info-to-electron_ipcRenderer" style="stroke:#2A9FD6;stroke-width:3.125;stroke-dasharray:7.0,7.0;"/><polygon fill="#2A9FD6" points="119.7917,947.9063,123.9583,938.5313,119.7917,942.6979,115.625,938.5313,119.7917,947.9063" style="stroke:#2A9FD6;stroke-width:3.125;"/><!--MD5=[0c86f8830823ee1bca725889452d6c0c]
reverse link ui_components to ui_base_components--><path codeLine="22" d="M294.6042,218.5938 C283.1458,253.3125 271.6771,304.6875 284.375,347.9167 C307.1458,425.4792 364.7708,501.6458 401.3021,544.4479 " fill="none" id="ui_components-backto-ui_base_components" style="stroke:#2A9FD6;stroke-width:3.125;stroke-dasharray:1.0,3.0;"/><polygon fill="#2A9FD6" points="296.2917,213.5937,289.34,221.1387,294.6223,218.5273,297.2337,223.8096,296.2917,213.5937" style="stroke:#2A9FD6;stroke-width:3.125;"/><!--MD5=[6aa2e5b368302d9a8ca68ddfbee2a7cc]
reverse link ui_components to ui_parameters--><path codeLine="23" d="M328.1146,218.7813 C336.1146,236.9167 345.4792,258.1563 353.1979,275.6667 " fill="none" id="ui_components-backto-ui_parameters" style="stroke:#2A9FD6;stroke-width:3.125;stroke-dasharray:1.0,3.0;"/><polygon fill="#2A9FD6" points="325.8958,213.75,325.8631,224.0092,327.9959,218.5162,333.4889,220.649,325.8958,213.75" style="stroke:#2A9FD6;stroke-width:3.125;"/><!--MD5=[28fc445b63de62c48cababa8c7ad3042]
reverse link ui_components to ui_append_help--><path codeLine="24" d="M382.9063,215.0729 C408.1458,230.8229 434.7188,251.3646 453.125,276.0417 C483.1042,316.2292 496.8438,373.6042 502.8854,410.1458 " fill="none" id="ui_components-backto-ui_append_help" style="stroke:#2A9FD6;stroke-width:3.125;stroke-dasharray:1.0,3.0;"/><polygon fill="#2A9FD6" points="378.2083,212.1771,384.0168,220.6336,382.6466,214.9026,388.3776,213.5324,378.2083,212.1771" style="stroke:#2A9FD6;stroke-width:3.125;"/><!--MD5=[f4ac936edc65c606174368003eaa6ade]
link ui_base_components to utils--><path codeLine="27" d="M433.3333,616.875 C433.3333,634.2188 433.3333,655.2396 433.3333,673.2917 " fill="none" id="ui_base_components-to-utils" style="stroke:#2A9FD6;stroke-width:3.125;stroke-dasharray:7.0,7.0;"/><polygon fill="#2A9FD6" points="433.3333,678.7917,437.5,669.4167,433.3333,673.5833,429.1667,669.4167,433.3333,678.7917" style="stroke:#2A9FD6;stroke-width:3.125;"/><!--MD5=[ca63c1fb27fc818c8581268338dcb6a9]
link ui_parameters to utils--><path codeLine="30" d="M352.3646,347.9271 C327.5,406.1875 287.125,525.8333 327.0833,616.6667 C341.5938,649.6563 373.4167,676.3542 398.4688,693.3958 " fill="none" id="ui_parameters-to-utils" style="stroke:#2A9FD6;stroke-width:3.125;stroke-dasharray:7.0,7.0;"/><polygon fill="#2A9FD6" points="403.0625,696.4688,397.5733,687.8016,398.7289,693.5797,392.9508,694.7353,403.0625,696.4688" style="stroke:#2A9FD6;stroke-width:3.125;"/><!--MD5=[a29ffb38c55d968174fe8ec646daea2b]
link ui_parameters to ui_base_components--><path d="M377.2604,348.1563 C389.2188,397.5208 410.9271,487.1667 423.5417,539.2396 " fill="none" id="ui_parameters-to-ui_base_components" style="stroke:#2A9FD6;stroke-width:3.125;stroke-dasharray:7.0,7.0;"/><polygon fill="#2A9FD6" points="424.8021,544.4688,426.6334,534.3743,423.5703,539.4082,418.5365,536.3451,424.8021,544.4688" style="stroke:#2A9FD6;stroke-width:3.125;"/><!--MD5=[0f1f033aaaf861384b2e5ceef4543ea4]
link ui_parameters to ui_append_help--><path codeLine="32" d="M405.5104,348.125 C424.3021,366.0625 447.2188,387.9479 466.5417,406.4063 " fill="none" id="ui_parameters-to-ui_append_help" style="stroke:#2A9FD6;stroke-width:3.125;stroke-dasharray:7.0,7.0;"/><polygon fill="#2A9FD6" points="470.3542,410.0417,466.4595,400.5504,466.5904,406.4415,460.6993,406.5725,470.3542,410.0417" style="stroke:#2A9FD6;stroke-width:3.125;"/><!--MD5=[ede98d80698ab2d622d4c2d6070e3d2c]
link ui_append_help to utils--><path codeLine="35" d="M526.0208,482.4688 C542.1563,517.6771 560.0313,572.8438 540.625,616.6667 C525.9583,649.8021 493.8229,676.4792 468.5313,693.4792 " fill="none" id="ui_append_help-to-utils" style="stroke:#2A9FD6;stroke-width:3.125;stroke-dasharray:7.0,7.0;"/><polygon fill="#2A9FD6" points="463.8958,696.5417,474.0143,694.8483,468.2408,693.6698,469.4193,687.8963,463.8958,696.5417" style="stroke:#2A9FD6;stroke-width:3.125;"/><!--MD5=[7df7b7e13a37f935b44622fa65bf821f]
link ui_append_help to ui_base_components--><path d="M487.6667,482.5 C477.8021,500.1458 465.8125,521.5938 455.6042,539.8542 " fill="none" id="ui_append_help-to-ui_base_components" style="stroke:#2A9FD6;stroke-width:3.125;stroke-dasharray:7.0,7.0;"/><polygon fill="#2A9FD6" points="453.0521,544.4167,461.2627,538.2654,455.5928,539.8701,453.9881,534.2002,453.0521,544.4167" style="stroke:#2A9FD6;stroke-width:3.125;"/><!--MD5=[9483d5c4681d055909e59fb9956bfd9c]
reverse link utils to type_checking--><path codeLine="39" d="M399.25,750.8229 C384.5938,768.1563 369.0833,790.3542 361.4583,813.5417 C351.4792,843.8854 351.4792,855.0729 361.4583,885.4167 C369.0104,908.375 384.2813,930.3542 398.8125,947.6146 " fill="none" id="utils-backto-type_checking" style="stroke:#2A9FD6;stroke-width:3.125;stroke-dasharray:1.0,3.0;"/><polygon fill="#2A9FD6" points="402.9583,746.5313,393.6759,750.9003,399.5529,750.472,399.9812,756.349,402.9583,746.5313" style="stroke:#2A9FD6;stroke-width:3.125;"/><!--MD5=[cfc55e45532bbc38773d43db648ce4c0]
reverse link utils to randomizers--><path codeLine="40" d="M467.9271,746.875 C490.3021,766.7396 519.4792,792.6563 542.7708,813.3333 " fill="none" id="utils-backto-randomizers" style="stroke:#2A9FD6;stroke-width:3.125;stroke-dasharray:1.0,3.0;"/><polygon fill="#2A9FD6" points="463.8333,743.2396,468.0898,752.5741,467.7327,746.6924,473.6144,746.3352,463.8333,743.2396" style="stroke:#2A9FD6;stroke-width:3.125;"/><!--MD5=[df7d2690f84641b5409d040c52281b1b]
reverse link utils to array_utils--><path codeLine="41" d="M433.3333,756.7396 C433.3333,774.7813 433.3333,795.8021 433.3333,813.1667 " fill="none" id="utils-backto-array_utils" style="stroke:#2A9FD6;stroke-width:3.125;stroke-dasharray:1.0,3.0;"/><polygon fill="#2A9FD6" points="433.3333,751.25,429.1667,760.625,433.3333,756.4583,437.5,760.625,433.3333,751.25" style="stroke:#2A9FD6;stroke-width:3.125;"/><!--MD5=[5b002819e077505629333bf8ed6e5074]
reverse link utils to log--><path codeLine="42" d="M398.5313,737.9167 C356.3021,764.3333 286.0625,808.2813 248.1146,832.0208 " fill="none" id="utils-backto-log" style="stroke:#2A9FD6;stroke-width:3.125;stroke-dasharray:1.0,3.0;"/><polygon fill="#2A9FD6" points="403.0417,735.1042,392.8812,736.5242,398.6208,737.8579,397.2871,743.5975,403.0417,735.1042" style="stroke:#2A9FD6;stroke-width:3.125;"/><!--MD5=[7274530af6157fe8d0aa7a38cdc54757]
link array_utils to type_checking--><path codeLine="45" d="M433.3333,885.625 C433.3333,902.9688 433.3333,923.9896 433.3333,942.0417 " fill="none" id="array_utils-to-type_checking" style="stroke:#2A9FD6;stroke-width:3.125;stroke-dasharray:7.0,7.0;"/><polygon fill="#2A9FD6" points="433.3333,947.5417,437.5,938.1667,433.3333,942.3333,429.1667,938.1667,433.3333,947.5417" style="stroke:#2A9FD6;stroke-width:3.125;"/><!--MD5=[13ded8bcb40aeaddd94a59b63afb665a]
link randomizers to type_checking--><path codeLine="48" d="M542.7604,885.625 C522.5625,903.5625 497.9271,925.4479 477.1458,943.9063 " fill="none" id="randomizers-to-type_checking" style="stroke:#2A9FD6;stroke-width:3.125;stroke-dasharray:7.0,7.0;"/><polygon fill="#2A9FD6" points="473.0417,947.5417,482.8227,944.446,476.941,944.0888,477.2982,938.2071,473.0417,947.5417" style="stroke:#2A9FD6;stroke-width:3.125;"/><!--MD5=[f3e5ea696b454018f9f7f19497e567c7]
link log to electron_ipcRenderer--><path d="M195.5833,884.5938 C181.75,902.5208 164.6979,924.6146 150.2813,943.3021 " fill="none" id="log-to-electron_ipcRenderer" style="stroke:#2A9FD6;stroke-width:3.125;stroke-dasharray:7.0,7.0;"/><polygon fill="#2A9FD6" points="147.0625,947.4792,156.0913,942.6076,150.2467,943.3576,149.4968,937.5129,147.0625,947.4792" style="stroke:#2A9FD6;stroke-width:3.125;"/><!--MD5=[a8200ab2ee1d6e93abbe0d250028e79a]
@startuml "modules
!theme cyborg-outline
skinparam BackgroundColor #222222
skinparam PackageStyle frame

'package: dotted = export, otherwise = import

package "global_context" {}
global_context ..> utils
global_context ..> ui_components
global_context ..> system
global_context ..> electron_ipcRenderer

package "system" {}
system <.[dotted]. system_info

package "electron_ipcRenderer" {}

package "system_info" {}
system_info ..> electron_ipcRenderer

package "ui_components" {}
ui_components <.[dotted]. ui_base_components
ui_components <.[dotted]. ui_parameters
ui_components <.[dotted]. ui_append_help

package "ui_base_components" {}
ui_base_components ..> utils

package "ui_parameters" {}
ui_parameters ..> utils
ui_parameters ..> ui_base_components
ui_parameters ..> ui_append_help

package "ui_append_help" {}
ui_append_help ..> utils
ui_append_help ..> ui_base_components

package "utils" {}
utils <.[dotted]. type_checking
utils <.[dotted]. randomizers
utils <.[dotted]. array_utils
utils <.[dotted]. log

package "array_utils" {}
array_utils ..> type_checking

package "randomizers" {}
randomizers ..> type_checking

package "type_checking" {}

package "log" {}
log ..> electron_ipcRenderer

@enduml

@startuml "modules



skinparam backgroundColor transparent
skinparam useBetaStyle false







skinparam defaultFontName       "Verdana"
skinparam defaultFontSize       12
skinparam dpi                   100
skinparam shadowing             false
skinparam roundcorner           8
skinparam ParticipantPadding    40
skinparam BoxPadding            40
skinparam Padding               5
skinparam ArrowColor            #ADAFAE
skinparam stereotype {
    CBackgroundColor #777777
    CBorderColor #444444
    ABackgroundColor #5F8F00
    ABorderColor #92C233
    IBackgroundColor #a30000
    IBorderColor #D63333
    EBackgroundColor #cc6d00
    EBorderColor #FFA033
    NBackgroundColor #7a29a3
    NBorderColor #AD5CD6
}
skinparam title {
	FontColor	                 #2A9FD6
	BorderColor	                 #777777
	FontSize	    	         20
	BorderRoundCorner            8
	BorderThickness 	         1
	BackgroundColor              transparent
}

skinparam legend {
	BackgroundColor transparent
	BorderColor #777777
	FontColor #ADAFAE
}

skinparam swimlane {
	BorderColor #9933CC
	BorderThickness 2
	TitleBackgroundColor  #444444-#555
	TitleFontColor #2A9FD6
}


skinparam activity {
		FontColor #2A9FD6
	BorderColor #55B2DE
	BackgroundColor transparent
	BarColor #77B300
	StartColor #9933CC
	EndColor #9933CC
	DiamondBackgroundColor transparent
  	DiamondBorderColor #777777
  	DiamondFontColor #777777
}


skinparam participant {
		FontColor #2A9FD6
	BorderColor #55B2DE
	BackgroundColor transparent
	ParticipantBorderThickness 2
}


skinparam actor {
		FontColor #2A9FD6
	BorderColor #55B2DE
	BackgroundColor transparent
	FontColor #2A9FD6
}


skinparam arrow {
	Thickness 3
	Color #2A9FD6
	FontColor #FFF
}


skinparam sequence {
	BorderColor #2A9FD6
	TitleFontColor #2A9FD6
	BackgroundColor transparent
	StartColor #2A9FD6
	EndColor #2A9FD6
	BoxBackgroundColor transparent
	BoxBorderColor #ADAFAE
	BoxFontColor $DARk
	LifeLineBorderColor #555
	LifeLineBorderThickness 2
	LifeLineBackgroundColor transparent
	GroupBorderColor #ADAFAE
	GroupFontColor #ADAFAE
	GroupHeaderFontColor #9933CC
	GroupBackgroundColor transparent
	GroupHeaderBackgroundColor transparent
	DividerBackgroundColor transparent
    DividerBorderColor #ADAFAE
    DividerBorderThickness 2
    DividerFontColor #ADAFAE
	ReferenceBackgroundColor transparent
	ReferenceBorderColor #ADAFAE
	ReferenceFontColor #ADAFAE
	ReferenceHeaderFontColor #9933CC
	ReferenceHeaderBackgroundColor transparent
}


skinparam partition {
	BorderColor #2A9FD6
	FontColor #2A9FD6
	BackgroundColor transparent
}


skinparam collections {
		FontColor #2A9FD6
	BorderColor #55B2DE
	BackgroundColor transparent
}


skinparam control {
		FontColor #2A9FD6
	BorderColor #55B2DE
	BackgroundColor transparent
	FontColor #2A9FD6
}


skinparam entity {
		FontColor #2A9FD6
	BorderColor #55B2DE
	BackgroundColor transparent
	FontColor #2A9FD6
}


skinparam boundary {
		FontColor #2A9FD6
	BorderColor #55B2DE
	BackgroundColor transparent
	FontColor #2A9FD6
}


skinparam agent {
	BackgroundColor transparent
	BorderColor #cc6d00
	FontColor #ADAFAE
}


skinparam note {
	BorderThickness 1
	BackgroundColor transparent
	BorderColor #AD5CD6
	FontColor #AD5CD6
}


skinparam artifact {
	BackgroundColor transparent
	BorderColor #BDBFBE
	FontColor #BDBFBE
}


skinparam component {
		FontColor #2A9FD6
	BorderColor #55B2DE
	BackgroundColor transparent
}


skinparam interface {
	BackgroundColor  transparent
	BorderColor  #CC0000
	FontColor #ADAFAE
}


skinparam storage {
	BackgroundColor transparent
  	BorderColor #FFA033
	FontColor #FF8800
}


skinparam node {
	BackgroundColor  transparent
	BorderColor #ADAFAE
	FontColor #ADAFAE
}


skinparam cloud {
	BackgroundColor transparent
	BorderColor #F2FCFE
	FontColor #ADAFAE
}


skinparam database {
		FontColor #2A9FD6
	BorderColor #55B2DE
	BackgroundColor transparent
	FontColor #2A9FD6
}



skinparam class {
		FontColor #2A9FD6
	BorderColor #55B2DE
	BackgroundColor transparent
        FontColor #222
	HeaderBackgroundColor #227FAB
	StereotypeFontColor #ADAFAE
	BorderThickness 1
	AttributeFontColor #ADAFAE
	AttributeFontSize 11
}


skinparam object {
		FontColor #2A9FD6
	BorderColor #55B2DE
	BackgroundColor transparent
	StereotypeFontColor #ADAFAE
	BorderThickness 1
	AttributeFontColor #777777
	AttributeFontSize 11
}


skinparam usecase {
		FontColor #2A9FD6
	BorderColor #55B2DE
	BackgroundColor transparent
	BorderThickness 2
	StereotypeFontColor #2A9FD6
}


skinparam rectangle {
		FontColor #2A9FD6
	BorderColor #55B2DE
	BackgroundColor transparent
	BorderThickness 2
	StereotypeFontColor #2A9FD6
}


skinparam package {
	BackgroundColor transparent
  	BorderColor #2A9FD6
	FontColor #2A9FD6
	BorderThickness 2
}


skinparam folder {
	BackgroundColor transparent
  	BorderColor #FF8800
	FontColor #FF8800
	BorderThickness 2
}


skinparam frame {
	BackgroundColor transparent
  	BorderColor #9933CC
	FontColor #9933CC
	BorderThickness 2
}


skinparam state {
		FontColor #2A9FD6
	BorderColor #55B2DE
	BackgroundColor transparent
	StartColor #9933CC
	EndColor #9933CC
	AttributeFontColor #777777
	AttributeFontSize 11
}


skinparam queue {
		FontColor #2A9FD6
	BorderColor #55B2DE
	BackgroundColor transparent
}


skinparam card {
	BackgroundColor transparent
	BorderColor #9933CC
	FontColor #9933CC
}


skinparam file {
	BackgroundColor transparent
	BorderColor #555
	FontColor #555
}


skinparam BackgroundColor #222222
skinparam PackageStyle frame


package "global_context" {}
global_context ..> utils
global_context ..> ui_components
global_context ..> system
global_context ..> electron_ipcRenderer

package "system" {}
system <.[dotted]. system_info

package "electron_ipcRenderer" {}

package "system_info" {}
system_info ..> electron_ipcRenderer

package "ui_components" {}
ui_components <.[dotted]. ui_base_components
ui_components <.[dotted]. ui_parameters
ui_components <.[dotted]. ui_append_help

package "ui_base_components" {}
ui_base_components ..> utils

package "ui_parameters" {}
ui_parameters ..> utils
ui_parameters ..> ui_base_components
ui_parameters ..> ui_append_help

package "ui_append_help" {}
ui_append_help ..> utils
ui_append_help ..> ui_base_components

package "utils" {}
utils <.[dotted]. type_checking
utils <.[dotted]. randomizers
utils <.[dotted]. array_utils
utils <.[dotted]. log

package "array_utils" {}
array_utils ..> type_checking

package "randomizers" {}
randomizers ..> type_checking

package "type_checking" {}

package "log" {}
log ..> electron_ipcRenderer

@enduml

PlantUML version 1.2021.7(Sun May 23 14:40:07 CEST 2021)
(GPL source distribution)
Java Runtime: Java(TM) SE Runtime Environment
JVM: Java HotSpot(TM) 64-Bit Server VM
Default Encoding: Cp1252
Language: fr
Country: FR
--></g></svg>