<!--MIT License - Copyright (c) 2020-2021 Picorims-->

<?xml version="1.0" encoding="UTF-8" standalone="no"?><svg xmlns="http://www.w3.org/2000/svg" xmlns:xlink="http://www.w3.org/1999/xlink" contentScriptType="application/ecmascript" contentStyleType="text/css" height="1429.1667px" preserveAspectRatio="none" style="width:965px;height:1429px;background:#222222;" version="1.1" viewBox="0 0 965 1429" width="965.625px" zoomAndPan="magnify"><defs/><g><rect fill="#222222" height="72.05" style="stroke:#2A9FD6;stroke-width:2.0833333333333335;" width="133.3333" x="359.8958" y="7.2917"/><path d="M482.8125,7.2917 L482.8125,25.6083 L472.3958,36.025 L359.8958,36.025 " fill="none" style="stroke:#2A9FD6;stroke-width:2.0833333333333335;"/><text fill="#2A9FD6" font-family="Verdana" font-size="12.5" font-weight="bold" lengthAdjust="spacing" textLength="102.0833" x="368.2292" y="26.1088">global_context</text><rect fill="#222222" height="72.05" style="stroke:#2A9FD6;stroke-width:2.0833333333333335;" width="180.2083" x="88.5417" y="1351.0417"/><path d="M258.3333,1351.0417 L258.3333,1369.3583 L247.9167,1379.775 L88.5417,1379.775 " fill="none" style="stroke:#2A9FD6;stroke-width:2.0833333333333335;"/><text fill="#2A9FD6" font-family="Verdana" font-size="12.5" font-weight="bold" lengthAdjust="spacing" textLength="148.9583" x="96.875" y="1369.8588">electron_ipcRenderer</text><rect fill="#222222" height="72.05" style="stroke:#2A9FD6;stroke-width:2.0833333333333335;" width="80.2083" x="38.5417" y="141.6667"/><path d="M108.3333,141.6667 L108.3333,159.9833 L97.9167,170.4 L38.5417,170.4 " fill="none" style="stroke:#2A9FD6;stroke-width:2.0833333333333335;"/><text fill="#2A9FD6" font-family="Verdana" font-size="12.5" font-weight="bold" lengthAdjust="spacing" textLength="48.9583" x="46.875" y="160.4838">system</text><rect fill="#222222" height="72.05" style="stroke:#2A9FD6;stroke-width:2.0833333333333335;" width="115.625" x="7.2917" y="410.4167"/><path d="M112.5,410.4167 L112.5,428.7333 L102.0833,439.15 L7.2917,439.15 " fill="none" style="stroke:#2A9FD6;stroke-width:2.0833333333333335;"/><text fill="#2A9FD6" font-family="Verdana" font-size="12.5" font-weight="bold" lengthAdjust="spacing" textLength="84.375" x="15.625" y="429.2338">system_info</text><rect fill="#222222" height="72.05" style="stroke:#2A9FD6;stroke-width:2.0833333333333335;" width="135.4167" x="396.3542" y="544.7917"/><path d="M521.3542,544.7917 L521.3542,563.1083 L510.9375,573.525 L396.3542,573.525 " fill="none" style="stroke:#2A9FD6;stroke-width:2.0833333333333335;"/><text fill="#2A9FD6" font-family="Verdana" font-size="12.5" font-weight="bold" lengthAdjust="spacing" textLength="104.1667" x="404.6875" y="563.6088">ui_components</text><rect fill="#222222" height="72.05" style="stroke:#2A9FD6;stroke-width:2.0833333333333335;" width="177.0833" x="320.3125" y="947.9167"/><path d="M486.9792,947.9167 L486.9792,966.2333 L476.5625,976.65 L320.3125,976.65 " fill="none" style="stroke:#2A9FD6;stroke-width:2.0833333333333335;"/><text fill="#2A9FD6" font-family="Verdana" font-size="12.5" font-weight="bold" lengthAdjust="spacing" textLength="145.8333" x="328.6458" y="966.7338">ui_base_components</text><rect fill="#222222" height="72.05" style="stroke:#2A9FD6;stroke-width:2.0833333333333335;" width="132.2917" x="234.375" y="679.1667"/><path d="M356.25,679.1667 L356.25,697.4833 L345.8333,707.9 L234.375,707.9 " fill="none" style="stroke:#2A9FD6;stroke-width:2.0833333333333335;"/><text fill="#2A9FD6" font-family="Verdana" font-size="12.5" font-weight="bold" lengthAdjust="spacing" textLength="101.0417" x="242.7083" y="697.9838">ui_parameters</text><rect fill="#222222" height="72.05" style="stroke:#2A9FD6;stroke-width:2.0833333333333335;" width="141.6667" x="455.7292" y="813.5417"/><path d="M586.9792,813.5417 L586.9792,831.8583 L576.5625,842.275 L455.7292,842.275 " fill="none" style="stroke:#2A9FD6;stroke-width:2.0833333333333335;"/><text fill="#2A9FD6" font-family="Verdana" font-size="12.5" font-weight="bold" lengthAdjust="spacing" textLength="110.4167" x="464.0625" y="832.3588">ui_append_help</text><rect fill="#222222" height="72.05" style="stroke:#2A9FD6;stroke-width:2.0833333333333335;" width="60.4167" x="575.5208" y="1082.2917"/><path d="M625.5208,1082.2917 L625.5208,1100.6083 L615.1042,1111.025 L575.5208,1111.025 " fill="none" style="stroke:#2A9FD6;stroke-width:2.0833333333333335;"/><text fill="#2A9FD6" font-family="Verdana" font-size="12.5" font-weight="bold" lengthAdjust="spacing" textLength="29.1667" x="583.8542" y="1101.1088">utils</text><rect fill="#222222" height="72.05" style="stroke:#2A9FD6;stroke-width:2.0833333333333335;" width="107.2917" x="698.9583" y="1216.6667"/><path d="M795.8333,1216.6667 L795.8333,1234.9833 L785.4167,1245.4 L698.9583,1245.4 " fill="none" style="stroke:#2A9FD6;stroke-width:2.0833333333333335;"/><text fill="#2A9FD6" font-family="Verdana" font-size="12.5" font-weight="bold" lengthAdjust="spacing" textLength="76.0417" x="707.2917" y="1235.4838">array_utils</text><rect fill="#222222" height="72.05" style="stroke:#2A9FD6;stroke-width:2.0833333333333335;" width="116.6667" x="322.3958" y="1216.6667"/><path d="M428.6458,1216.6667 L428.6458,1234.9833 L418.2292,1245.4 L322.3958,1245.4 " fill="none" style="stroke:#2A9FD6;stroke-width:2.0833333333333335;"/><text fill="#2A9FD6" font-family="Verdana" font-size="12.5" font-weight="bold" lengthAdjust="spacing" textLength="85.4167" x="330.7292" y="1235.4838">randomizers</text><rect fill="#222222" height="72.05" style="stroke:#2A9FD6;stroke-width:2.0833333333333335;" width="131.25" x="521.3542" y="1351.0417"/><path d="M642.1875,1351.0417 L642.1875,1369.3583 L631.7708,1379.775 L521.3542,1379.775 " fill="none" style="stroke:#2A9FD6;stroke-width:2.0833333333333335;"/><text fill="#2A9FD6" font-family="Verdana" font-size="12.5" font-weight="bold" lengthAdjust="spacing" textLength="100" x="529.6875" y="1369.8588">type_checking</text><rect fill="#222222" height="72.05" style="stroke:#2A9FD6;stroke-width:2.0833333333333335;" width="52.0833" x="233.8542" y="1216.6667"/><path d="M275.5208,1216.6667 L275.5208,1234.9833 L265.1042,1245.4 L233.8542,1245.4 " fill="none" style="stroke:#2A9FD6;stroke-width:2.0833333333333335;"/><text fill="#2A9FD6" font-family="Verdana" font-size="12.5" font-weight="bold" lengthAdjust="spacing" textLength="20.8333" x="242.1875" y="1235.4838">log</text><rect fill="#222222" height="72.05" style="stroke:#2A9FD6;stroke-width:2.0833333333333335;" width="116.6667" x="843.2292" y="1216.6667"/><path d="M949.4792,1216.6667 L949.4792,1234.9833 L939.0625,1245.4 L843.2292,1245.4 " fill="none" style="stroke:#2A9FD6;stroke-width:2.0833333333333335;"/><text fill="#2A9FD6" font-family="Verdana" font-size="12.5" font-weight="bold" lengthAdjust="spacing" textLength="85.4167" x="851.5625" y="1235.4838">event_mixin</text><rect fill="#222222" height="72.05" style="stroke:#2A9FD6;stroke-width:2.0833333333333335;" width="112.5" x="475.5208" y="1216.6667"/><path d="M577.6042,1216.6667 L577.6042,1234.9833 L567.1875,1245.4 L475.5208,1245.4 " fill="none" style="stroke:#2A9FD6;stroke-width:2.0833333333333335;"/><text fill="#2A9FD6" font-family="Verdana" font-size="12.5" font-weight="bold" lengthAdjust="spacing" textLength="81.25" x="483.8542" y="1235.4838">object_utils</text><rect fill="#222222" height="72.05" style="stroke:#2A9FD6;stroke-width:2.0833333333333335;" width="131.25" x="517.1875" y="141.6667"/><path d="M638.0208,141.6667 L638.0208,159.9833 L627.6042,170.4 L517.1875,170.4 " fill="none" style="stroke:#2A9FD6;stroke-width:2.0833333333333335;"/><text fill="#2A9FD6" font-family="Verdana" font-size="12.5" font-weight="bold" lengthAdjust="spacing" textLength="100" x="525.5208" y="160.4838">visual_objects</text><rect fill="#222222" height="72.05" style="stroke:#2A9FD6;stroke-width:2.0833333333333335;" width="123.9583" x="520.8333" y="276.0417"/><path d="M634.375,276.0417 L634.375,294.3583 L623.9583,304.775 L520.8333,304.775 " fill="none" style="stroke:#2A9FD6;stroke-width:2.0833333333333335;"/><text fill="#2A9FD6" font-family="Verdana" font-size="12.5" font-weight="bold" lengthAdjust="spacing" textLength="92.7083" x="529.1667" y="294.8588">visual_object</text><rect fill="#222222" height="72.05" style="stroke:#2A9FD6;stroke-width:2.0833333333333335;" width="192.7083" x="630.2083" y="410.4167"/><path d="M812.5,410.4167 L812.5,428.7333 L802.0833,439.15 L630.2083,439.15 " fill="none" style="stroke:#2A9FD6;stroke-width:2.0833333333333335;"/><text fill="#2A9FD6" font-family="Verdana" font-size="12.5" font-weight="bold" lengthAdjust="spacing" textLength="161.4583" x="638.5417" y="429.2338">visual_object_property</text><!--MD5=[e4f599363bfb73238eeb9b8e16c8b877]
link global_context to utils--><path codeLine="8" d="M493.2708,52.5104 C619.0208,72.1667 878.6458,134.1562 878.6458,310.9375 C878.6458,310.9375 878.6458,310.9375 878.6458,850.5208 C878.6458,981.8438 714.9896,1069.6875 641.1354,1102.6458 " fill="none" id="global_context-to-utils" style="stroke:#2A9FD6;stroke-width:3.125;stroke-dasharray:7.0,7.0;"/><polygon fill="#2A9FD6" points="635.9792,1104.9271,646.2383,1104.9716,640.7477,1102.8325,642.8869,1097.3419,635.9792,1104.9271" style="stroke:#2A9FD6;stroke-width:3.125;"/><!--MD5=[0ee9eaa336625e5ffac465c2c73be687]
link global_context to ui_components--><path codeLine="9" d="M429.0208,79.3958 C435.7083,174.8229 454.1667,438.4271 461.25,539.5104 " fill="none" id="global_context-to-ui_components" style="stroke:#2A9FD6;stroke-width:3.125;stroke-dasharray:7.0,7.0;"/><polygon fill="#2A9FD6" points="461.6146,544.7813,465.1283,535.1425,461.2573,539.5852,456.8146,535.7142,461.6146,544.7813" style="stroke:#2A9FD6;stroke-width:3.125;"/><!--MD5=[84c40fb1b9f1b6ce9c6184d8d6eedfd7]
link global_context to system--><path codeLine="10" d="M359.6875,65.75 C303.5417,84.3021 221.5,112.6458 151.5625,141.6667 C142.4896,145.4375 132.9167,149.75 123.8021,154.0312 " fill="none" id="global_context-to-system" style="stroke:#2A9FD6;stroke-width:3.125;stroke-dasharray:7.0,7.0;"/><polygon fill="#2A9FD6" points="118.8021,156.4063,129.0587,156.1767,123.513,154.185,125.5047,148.6392,118.8021,156.4063" style="stroke:#2A9FD6;stroke-width:3.125;"/><!--MD5=[3d1a51631a1fa2b413276c719b0b6526]
link global_context to electron_ipcRenderer--><path codeLine="11" d="M359.8021,78.9063 C286.375,122.3542 178.6458,204.2604 178.6458,310.9375 C178.6458,310.9375 178.6458,310.9375 178.6458,1119.2708 C178.6458,1199.6146 178.6458,1293.5729 178.6458,1345.7708 " fill="none" id="global_context-to-electron_ipcRenderer" style="stroke:#2A9FD6;stroke-width:3.125;stroke-dasharray:7.0,7.0;"/><polygon fill="#2A9FD6" points="178.6458,1350.9896,182.8125,1341.6146,178.6458,1345.7813,174.4792,1341.6146,178.6458,1350.9896" style="stroke:#2A9FD6;stroke-width:3.125;"/><!--MD5=[5104a123f78a8816d0db836956f418d6]
link global_context to visual_objects--><path codeLine="12" d="M468.0208,79.375 C489.3854,97.4583 515.4792,119.5521 537.3854,138.1042 " fill="none" id="global_context-to-visual_objects" style="stroke:#2A9FD6;stroke-width:3.125;stroke-dasharray:7.0,7.0;"/><polygon fill="#2A9FD6" points="541.4271,141.5208,536.9834,132.2739,537.459,138.1472,531.5857,138.6228,541.4271,141.5208" style="stroke:#2A9FD6;stroke-width:3.125;"/><!--MD5=[e62436dfa28e8af855b264ea83d97ad6]
reverse link system to system_info--><path codeLine="21" d="M76.5938,219.0104 C73.9583,271.0417 69.4063,360.6979 66.8958,410.0938 " fill="none" id="system-backto-system_info" style="stroke:#2A9FD6;stroke-width:3.125;stroke-dasharray:1.0,3.0;"/><polygon fill="#2A9FD6" points="76.8646,213.7813,72.2467,222.9424,76.6112,218.9834,80.5702,223.3479,76.8646,213.7813" style="stroke:#2A9FD6;stroke-width:3.125;"/><!--MD5=[88daaa8ad5926cd77091d362d6c512b6]
link system_info to electron_ipcRenderer--><path d="M69.3958,482.7083 C75.2188,533.6979 84.8958,630.9688 84.8958,714.0625 C84.8958,714.0625 84.8958,714.0625 84.8958,1119.2708 C84.8958,1203.6563 127.1979,1294.9896 154.9688,1345.8646 " fill="none" id="system_info-to-electron_ipcRenderer" style="stroke:#2A9FD6;stroke-width:3.125;stroke-dasharray:7.0,7.0;"/><polygon fill="#2A9FD6" points="157.6042,1350.6667,156.7191,1340.4457,155.0862,1346.1075,149.4244,1344.4745,157.6042,1350.6667" style="stroke:#2A9FD6;stroke-width:3.125;"/><!--MD5=[0c86f8830823ee1bca725889452d6c0c]
reverse link ui_components to ui_base_components--><path codeLine="29" d="M458.4479,622.5208 C447.5938,701.4063 423.875,873.7083 413.6771,947.8021 " fill="none" id="ui_components-backto-ui_base_components" style="stroke:#2A9FD6;stroke-width:3.125;stroke-dasharray:1.0,3.0;"/><polygon fill="#2A9FD6" points="459.2083,617.0104,453.793,625.7239,458.4926,622.1693,462.0472,626.869,459.2083,617.0104" style="stroke:#2A9FD6;stroke-width:3.125;"/><!--MD5=[6aa2e5b368302d9a8ca68ddfbee2a7cc]
reverse link ui_components to ui_parameters--><path codeLine="30" d="M416.4375,620.3021 C393.5,638.8542 366.1875,660.9479 343.8333,679.0208 " fill="none" id="ui_components-backto-ui_parameters" style="stroke:#2A9FD6;stroke-width:3.125;stroke-dasharray:1.0,3.0;"/><polygon fill="#2A9FD6" points="420.6667,616.875,410.7525,619.5132,416.6113,620.1431,415.9814,626.0019,420.6667,616.875" style="stroke:#2A9FD6;stroke-width:3.125;"/><!--MD5=[28fc445b63de62c48cababa8c7ad3042]
reverse link ui_components to ui_append_help--><path codeLine="31" d="M473.5208,622.1354 C485.7188,674.1667 506.7292,763.8229 518.3125,813.2188 " fill="none" id="ui_components-backto-ui_append_help" style="stroke:#2A9FD6;stroke-width:3.125;stroke-dasharray:1.0,3.0;"/><polygon fill="#2A9FD6" points="472.3021,616.9063,470.3868,626.9851,473.4917,621.9769,478.4999,625.0818,472.3021,616.9063" style="stroke:#2A9FD6;stroke-width:3.125;"/><!--MD5=[f4ac936edc65c606174368003eaa6ade]
link ui_base_components to utils--><path codeLine="34" d="M461.0938,1020 C495.8438,1043.3438 540.5104,1073.3646 570.9583,1093.8229 " fill="none" id="ui_base_components-to-utils" style="stroke:#2A9FD6;stroke-width:3.125;stroke-dasharray:7.0,7.0;"/><polygon fill="#2A9FD6" points="575.3438,1096.7708,569.889,1088.0819,571.0217,1093.8646,565.239,1094.9973,575.3438,1096.7708" style="stroke:#2A9FD6;stroke-width:3.125;"/><!--MD5=[ca63c1fb27fc818c8581268338dcb6a9]
link ui_parameters to utils--><path codeLine="37" d="M288.6042,751.1354 C270.1771,812.2083 242.6875,939.4167 301.5625,1019.7917 C364.5,1105.7188 504.25,1117.5313 570.1042,1118.0729 " fill="none" id="ui_parameters-to-utils" style="stroke:#2A9FD6;stroke-width:3.125;stroke-dasharray:7.0,7.0;"/><polygon fill="#2A9FD6" points="575.4792,1118.0938,566.1161,1113.9003,570.2709,1118.0789,566.0923,1122.2336,575.4792,1118.0938" style="stroke:#2A9FD6;stroke-width:3.125;"/><!--MD5=[a29ffb38c55d968174fe8ec646daea2b]
link ui_parameters to ui_base_components--><path d="M314.7917,751.2813 C334.8854,800.7396 371.4167,890.6563 392.5521,942.6875 " fill="none" id="ui_parameters-to-ui_base_components" style="stroke:#2A9FD6;stroke-width:3.125;stroke-dasharray:7.0,7.0;"/><polygon fill="#2A9FD6" points="394.5521,947.5938,394.8847,937.3399,392.5922,942.7682,387.1639,940.4758,394.5521,947.5938" style="stroke:#2A9FD6;stroke-width:3.125;"/><!--MD5=[0f1f033aaaf861384b2e5ceef4543ea4]
link ui_parameters to ui_append_help--><path codeLine="39" d="M360.2083,751.0729 C391.625,769.4688 430.1771,792.0208 462.25,810.8021 " fill="none" id="ui_parameters-to-ui_append_help" style="stroke:#2A9FD6;stroke-width:3.125;stroke-dasharray:7.0,7.0;"/><polygon fill="#2A9FD6" points="466.9375,813.5417,460.9562,805.2065,462.4441,810.9081,456.7424,812.396,466.9375,813.5417" style="stroke:#2A9FD6;stroke-width:3.125;"/><!--MD5=[ede98d80698ab2d622d4c2d6070e3d2c]
link ui_append_help to utils--><path codeLine="42" d="M536.9896,885.6563 C551.6458,935.0208 578.2604,1024.6667 593.7188,1076.7396 " fill="none" id="ui_append_help-to-utils" style="stroke:#2A9FD6;stroke-width:3.125;stroke-dasharray:7.0,7.0;"/><polygon fill="#2A9FD6" points="595.2708,1081.9688,596.5901,1071.7947,593.7851,1076.9768,588.603,1074.1718,595.2708,1081.9688" style="stroke:#2A9FD6;stroke-width:3.125;"/><!--MD5=[7df7b7e13a37f935b44622fa65bf821f]
link ui_append_help to ui_base_components--><path d="M495.3229,885.625 C479.5,903.4167 460.2188,925.0833 443.8854,943.4375 " fill="none" id="ui_append_help-to-ui_base_components" style="stroke:#2A9FD6;stroke-width:3.125;stroke-dasharray:7.0,7.0;"/><polygon fill="#2A9FD6" points="440.2396,947.5417,449.5832,943.3051,443.7007,943.6497,443.3561,937.7673,440.2396,947.5417" style="stroke:#2A9FD6;stroke-width:3.125;"/><!--MD5=[9483d5c4681d055909e59fb9956bfd9c]
reverse link utils to type_checking--><path codeLine="48" d="M608.3854,1159.7604 C610.0625,1194.125 611.1771,1244.6875 606.7708,1288.5417 C604.6667,1309.4896 600.0729,1332.5833 595.8438,1351.0313 " fill="none" id="utils-backto-type_checking" style="stroke:#2A9FD6;stroke-width:3.125;stroke-dasharray:1.0,3.0;"/><polygon fill="#2A9FD6" points="608.1146,1154.3854,604.4363,1163.9626,608.3829,1159.5868,612.7586,1163.5334,608.1146,1154.3854" style="stroke:#2A9FD6;stroke-width:3.125;"/><!--MD5=[cfc55e45532bbc38773d43db648ce4c0]
reverse link utils to randomizers--><path codeLine="49" d="M570.7708,1139.8229 C535.6563,1160.4688 480.8958,1192.6667 439.1667,1217.2083 " fill="none" id="utils-backto-randomizers" style="stroke:#2A9FD6;stroke-width:3.125;stroke-dasharray:1.0,3.0;"/><polygon fill="#2A9FD6" points="575.3854,1137.1146,565.1932,1138.2853,570.8985,1139.7592,569.4246,1145.4645,575.3854,1137.1146" style="stroke:#2A9FD6;stroke-width:3.125;"/><!--MD5=[df7d2690f84641b5409d040c52281b1b]
reverse link utils to array_utils--><path codeLine="50" d="M640.1979,1150.3229 C662.2708,1170.1979 690.9479,1196.0313 713.8125,1216.625 " fill="none" id="utils-backto-array_utils" style="stroke:#2A9FD6;stroke-width:3.125;stroke-dasharray:1.0,3.0;"/><polygon fill="#2A9FD6" points="636.1667,1146.6771,640.3477,1156.0457,640.038,1150.1613,645.9224,1149.8516,636.1667,1146.6771" style="stroke:#2A9FD6;stroke-width:3.125;"/><!--MD5=[5b002819e077505629333bf8ed6e5074]
reverse link utils to log--><path codeLine="51" d="M570.0208,1126.3854 C511.7396,1138.9375 393.6667,1168.3542 303.6458,1216.6667 C297.6563,1219.8854 291.6667,1223.9479 286.1354,1228.1563 " fill="none" id="utils-backto-log" style="stroke:#2A9FD6;stroke-width:3.125;stroke-dasharray:1.0,3.0;"/><polygon fill="#2A9FD6" points="575.125,1125.2917,565.088,1123.1678,570.0308,1126.3759,566.8227,1131.3186,575.125,1125.2917" style="stroke:#2A9FD6;stroke-width:3.125;"/><!--MD5=[c9105b50222ba0637f8ba4de9daf9e46]
reverse link utils to event_mixin--><path codeLine="52" d="M641.0417,1134.9167 C684.3125,1154.1042 759.8438,1187.6458 824.4792,1216.6667 C830.5104,1219.375 836.8021,1222.2083 843.0729,1225.0417 " fill="none" id="utils-backto-event_mixin" style="stroke:#2A9FD6;stroke-width:3.125;stroke-dasharray:1.0,3.0;"/><polygon fill="#2A9FD6" points="636.1875,1132.7604,643.0667,1140.3715,640.9482,1134.873,646.4467,1132.7545,636.1875,1132.7604" style="stroke:#2A9FD6;stroke-width:3.125;"/><!--MD5=[7735e3c9acf9fc4204c80ce485314547]
reverse link utils to object_utils--><path codeLine="53" d="M583.5521,1158.9375 C573.3542,1177.1771 561.3646,1198.625 551.4896,1216.2917 " fill="none" id="utils-backto-object_utils" style="stroke:#2A9FD6;stroke-width:3.125;stroke-dasharray:1.0,3.0;"/><polygon fill="#2A9FD6" points="586.1042,1154.375,577.8936,1160.5263,583.5634,1158.9216,585.1681,1164.5914,586.1042,1154.375" style="stroke:#2A9FD6;stroke-width:3.125;"/><!--MD5=[7274530af6157fe8d0aa7a38cdc54757]
link array_utils to type_checking--><path codeLine="56" d="M708.6563,1288.75 C686.0104,1306.8333 658.3542,1328.9271 635.125,1347.4792 " fill="none" id="array_utils-to-type_checking" style="stroke:#2A9FD6;stroke-width:3.125;stroke-dasharray:7.0,7.0;"/><polygon fill="#2A9FD6" points="630.8438,1350.8958,640.7742,1348.3195,634.9195,1347.6531,635.5859,1341.7984,630.8438,1350.8958" style="stroke:#2A9FD6;stroke-width:3.125;"/><!--MD5=[13ded8bcb40aeaddd94a59b63afb665a]
link randomizers to type_checking--><path codeLine="59" d="M435.1875,1288.5729 C463.7396,1306.8854 498.7396,1329.3438 527.9375,1348.0729 " fill="none" id="randomizers-to-type_checking" style="stroke:#2A9FD6;stroke-width:3.125;stroke-dasharray:7.0,7.0;"/><polygon fill="#2A9FD6" points="532.5729,1351.0417,526.94,1342.4672,528.1918,1348.2252,522.4337,1349.477,532.5729,1351.0417" style="stroke:#2A9FD6;stroke-width:3.125;"/><!--MD5=[f3e5ea696b454018f9f7f19497e567c7]
link log to electron_ipcRenderer--><path d="M238.3333,1288.75 C227.5,1306.3958 214.3229,1327.8438 203.1146,1346.1042 " fill="none" id="log-to-electron_ipcRenderer" style="stroke:#2A9FD6;stroke-width:3.125;stroke-dasharray:7.0,7.0;"/><polygon fill="#2A9FD6" points="200.3021,1350.6667,208.7586,1344.8582,203.0276,1346.2284,201.6574,1340.4974,200.3021,1350.6667" style="stroke:#2A9FD6;stroke-width:3.125;"/><!--MD5=[d87a6e65c0be786d5906c822ca0831bc]
link object_utils to type_checking--><path d="M546.4167,1288.75 C553.7188,1306.2396 562.5833,1327.4792 570.1563,1345.6354 " fill="none" id="object_utils-to-type_checking" style="stroke:#2A9FD6;stroke-width:3.125;stroke-dasharray:7.0,7.0;"/><polygon fill="#2A9FD6" points="572.2604,1350.6667,572.4895,1340.41,570.2519,1345.8612,564.8008,1343.6236,572.2604,1350.6667" style="stroke:#2A9FD6;stroke-width:3.125;"/><!--MD5=[141934bd0f39bbea1aedeac36430e141]
reverse link visual_objects to visual_object--><path codeLine="74" d="M582.8125,219.2396 C582.8125,237.2812 582.8125,258.3021 582.8125,275.6667 " fill="none" id="visual_objects-backto-visual_object" style="stroke:#2A9FD6;stroke-width:3.125;stroke-dasharray:1.0,3.0;"/><polygon fill="#2A9FD6" points="582.8125,213.75,578.6458,223.125,582.8125,218.9583,586.9792,223.125,582.8125,213.75" style="stroke:#2A9FD6;stroke-width:3.125;"/><!--MD5=[886d204d03cf87123193cb93eb3d1946]
reverse link visual_objects to visual_object_property--><path codeLine="75" d="M620.4271,218.1875 C635.1042,235.0729 651.1979,255.5833 663.0208,276.0417 C688.1458,319.5208 706.6875,374.7813 717.0625,410.1042 " fill="none" id="visual_objects-backto-visual_object_property" style="stroke:#2A9FD6;stroke-width:3.125;stroke-dasharray:1.0,3.0;"/><polygon fill="#2A9FD6" points="616.7292,213.9792,619.7458,223.7848,620.1504,217.9062,626.0291,218.3108,616.7292,213.9792" style="stroke:#2A9FD6;stroke-width:3.125;"/><!--MD5=[6d2ac9e500a1211ca75c131135dcbb35]
link visual_object to ui_components--><path d="M567.1667,348.1563 C545.1354,397.6146 505.1042,487.5313 481.9271,539.5625 " fill="none" id="visual_object-to-ui_components" style="stroke:#2A9FD6;stroke-width:3.125;stroke-dasharray:7.0,7.0;"/><polygon fill="#2A9FD6" points="479.7396,544.4688,487.3507,537.5896,481.8521,539.7081,479.7336,534.2095,479.7396,544.4688" style="stroke:#2A9FD6;stroke-width:3.125;"/><!--MD5=[ae78cbda69f1f8def50a3263b255e145]
link visual_object to utils--><path d="M586.8333,348.1563 C596.6563,437.6771 620.7188,681.6563 616.1458,885.4167 C614.6354,952.5521 610.6771,1030.5417 608.0938,1076.7813 " fill="none" id="visual_object-to-utils" style="stroke:#2A9FD6;stroke-width:3.125;stroke-dasharray:7.0,7.0;"/><polygon fill="#2A9FD6" points="607.7917,1082.2604,612.4618,1073.1258,608.0748,1077.0598,604.1408,1072.6728,607.7917,1082.2604" style="stroke:#2A9FD6;stroke-width:3.125;"/><!--MD5=[6f29fab2e3234ef1efec8d3fc85fc0db]
link visual_object to visual_object_property--><path codeLine="80" d="M609.0729,348.125 C626.9688,366.2083 650.875,388.3021 672.5833,406.8542 " fill="none" id="visual_object-to-visual_object_property" style="stroke:#2A9FD6;stroke-width:3.125;stroke-dasharray:7.0,7.0;"/><polygon fill="#2A9FD6" points="676.6146,410.2708,672.1709,401.0239,672.6465,406.8972,666.7732,407.3728,676.6146,410.2708" style="stroke:#2A9FD6;stroke-width:3.125;"/><!--MD5=[41e3442f0ba59022b7ed544f22b4b339]
link visual_object_property to visual_object--><path d="M700.8438,410.0417 C683.0729,392 659.2813,370.0104 637.5729,351.5313 " fill="none" id="visual_object_property-to-visual_object" style="stroke:#2A9FD6;stroke-width:3.125;stroke-dasharray:7.0,7.0;"/><polygon fill="#2A9FD6" points="633.5417,348.125,638.0225,357.354,637.5233,351.4826,643.3946,350.9834,633.5417,348.125" style="stroke:#2A9FD6;stroke-width:3.125;"/><!--MD5=[bad2325fa60882b4a34da1631139fba4]
link visual_object_property to utils--><path d="M726.5625,482.3438 C726.5625,533.2917 726.5625,630.9583 726.5625,714.0625 C726.5625,714.0625 726.5625,714.0625 726.5625,850.5208 C726.5625,928.5833 714.3333,949.8333 679.6875,1019.7917 C669.1771,1041.0104 653.7813,1062.2396 639.7604,1079.4271 " fill="none" id="visual_object_property-to-utils" style="stroke:#2A9FD6;stroke-width:3.125;stroke-dasharray:7.0,7.0;"/><polygon fill="#2A9FD6" points="636.2292,1083.7083,645.4017,1079.1131,639.537,1079.6853,638.9648,1073.8206,636.2292,1083.7083" style="stroke:#2A9FD6;stroke-width:3.125;"/><!--MD5=[e02c1c7f6e7729f031a8745f9bf0375d]
link visual_object_property to ui_components--><path d="M657.25,482.3229 C620.1771,501.0104 574.5625,524 536.9583,542.9479 " fill="none" id="visual_object_property-to-ui_components" style="stroke:#2A9FD6;stroke-width:3.125;stroke-dasharray:7.0,7.0;"/><polygon fill="#2A9FD6" points="531.9479,545.4792,542.1947,544.9741,536.5974,543.1321,538.4394,537.5349,531.9479,545.4792" style="stroke:#2A9FD6;stroke-width:3.125;"/><!--MD5=[876b0aec402e26c5091c91c9a2534d54]
@startuml modules
!theme cyborg-outline
skinparam BackgroundColor #222222
skinparam PackageStyle frame

'package: dotted = export, otherwise = import

package "global_context" {}
global_context ..> utils
global_context ..> ui_components
global_context ..> system
global_context ..> electron_ipcRenderer
global_context ..> visual_objects



package "electron_ipcRenderer" {}



package "system" {}
system <.[dotted]. system_info

package "system_info" {}
system_info ..> electron_ipcRenderer



package "ui_components" {}
ui_components <.[dotted]. ui_base_components
ui_components <.[dotted]. ui_parameters
ui_components <.[dotted]. ui_append_help

package "ui_base_components" {}
ui_base_components ..> utils

package "ui_parameters" {}
ui_parameters ..> utils
ui_parameters ..> ui_base_components
ui_parameters ..> ui_append_help

package "ui_append_help" {}
ui_append_help ..> utils
ui_append_help ..> ui_base_components



package "utils" {}
utils <.[dotted]. type_checking
utils <.[dotted]. randomizers
utils <.[dotted]. array_utils
utils <.[dotted]. log
utils <.[dotted]. event_mixin
utils <.[dotted]. object_utils

package "array_utils" {}
array_utils ..> type_checking

package "randomizers" {}
randomizers ..> type_checking

package "type_checking" {}

package "log" {}
log ..> electron_ipcRenderer

package "event_mixin" {}

package "object_utils" {}
object_utils ..> type_checking



package "visual_objects" {}
visual_objects <.[dotted]. visual_object
visual_objects <.[dotted]. visual_object_property

package "visual_object" {}
visual_object ..> ui_components
visual_object ..> utils
visual_object ..> visual_object_property

package "visual_object_property" {}
visual_object_property ..> visual_object
visual_object_property ..> utils
visual_object_property ..> ui_components

@enduml

@startuml modules



skinparam backgroundColor transparent
skinparam useBetaStyle false







skinparam defaultFontName       "Verdana"
skinparam defaultFontSize       12
skinparam dpi                   100
skinparam shadowing             false
skinparam roundcorner           8
skinparam ParticipantPadding    40
skinparam BoxPadding            40
skinparam Padding               5
skinparam ArrowColor            #ADAFAE
skinparam stereotype {
    CBackgroundColor #777777
    CBorderColor #444444
    ABackgroundColor #5F8F00
    ABorderColor #92C233
    IBackgroundColor #a30000
    IBorderColor #D63333
    EBackgroundColor #cc6d00
    EBorderColor #FFA033
    NBackgroundColor #7a29a3
    NBorderColor #AD5CD6
}
skinparam title {
	FontColor	                 #2A9FD6
	BorderColor	                 #777777
	FontSize	    	         20
	BorderRoundCorner            8
	BorderThickness 	         1
	BackgroundColor              transparent
}

skinparam legend {
	BackgroundColor transparent
	BorderColor #777777
	FontColor #ADAFAE
}

skinparam swimlane {
	BorderColor #9933CC
	BorderThickness 2
	TitleBackgroundColor  #444444-#555
	TitleFontColor #2A9FD6
}


skinparam activity {
		FontColor #2A9FD6
	BorderColor #55B2DE
	BackgroundColor transparent
	BarColor #77B300
	StartColor #9933CC
	EndColor #9933CC
	DiamondBackgroundColor transparent
  	DiamondBorderColor #777777
  	DiamondFontColor #777777
}


skinparam participant {
		FontColor #2A9FD6
	BorderColor #55B2DE
	BackgroundColor transparent
	ParticipantBorderThickness 2
}


skinparam actor {
		FontColor #2A9FD6
	BorderColor #55B2DE
	BackgroundColor transparent
	FontColor #2A9FD6
}


skinparam arrow {
	Thickness 3
	Color #2A9FD6
	FontColor #FFF
}


skinparam sequence {
	BorderColor #2A9FD6
	TitleFontColor #2A9FD6
	BackgroundColor transparent
	StartColor #2A9FD6
	EndColor #2A9FD6
	BoxBackgroundColor transparent
	BoxBorderColor #ADAFAE
	BoxFontColor $DARk
	LifeLineBorderColor #555
	LifeLineBorderThickness 2
	LifeLineBackgroundColor transparent
	GroupBorderColor #ADAFAE
	GroupFontColor #ADAFAE
	GroupHeaderFontColor #9933CC
	GroupBackgroundColor transparent
	GroupHeaderBackgroundColor transparent
	DividerBackgroundColor transparent
    DividerBorderColor #ADAFAE
    DividerBorderThickness 2
    DividerFontColor #ADAFAE
	ReferenceBackgroundColor transparent
	ReferenceBorderColor #ADAFAE
	ReferenceFontColor #ADAFAE
	ReferenceHeaderFontColor #9933CC
	ReferenceHeaderBackgroundColor transparent
}


skinparam partition {
	BorderColor #2A9FD6
	FontColor #2A9FD6
	BackgroundColor transparent
}


skinparam collections {
		FontColor #2A9FD6
	BorderColor #55B2DE
	BackgroundColor transparent
}


skinparam control {
		FontColor #2A9FD6
	BorderColor #55B2DE
	BackgroundColor transparent
	FontColor #2A9FD6
}


skinparam entity {
		FontColor #2A9FD6
	BorderColor #55B2DE
	BackgroundColor transparent
	FontColor #2A9FD6
}


skinparam boundary {
		FontColor #2A9FD6
	BorderColor #55B2DE
	BackgroundColor transparent
	FontColor #2A9FD6
}


skinparam agent {
	BackgroundColor transparent
	BorderColor #cc6d00
	FontColor #ADAFAE
}


skinparam note {
	BorderThickness 1
	BackgroundColor transparent
	BorderColor #AD5CD6
	FontColor #AD5CD6
}


skinparam artifact {
	BackgroundColor transparent
	BorderColor #BDBFBE
	FontColor #BDBFBE
}


skinparam component {
		FontColor #2A9FD6
	BorderColor #55B2DE
	BackgroundColor transparent
}


skinparam interface {
	BackgroundColor  transparent
	BorderColor  #CC0000
	FontColor #ADAFAE
}


skinparam storage {
	BackgroundColor transparent
  	BorderColor #FFA033
	FontColor #FF8800
}


skinparam node {
	BackgroundColor  transparent
	BorderColor #ADAFAE
	FontColor #ADAFAE
}


skinparam cloud {
	BackgroundColor transparent
	BorderColor #F2FCFE
	FontColor #ADAFAE
}


skinparam database {
		FontColor #2A9FD6
	BorderColor #55B2DE
	BackgroundColor transparent
	FontColor #2A9FD6
}



skinparam class {
		FontColor #2A9FD6
	BorderColor #55B2DE
	BackgroundColor transparent
        FontColor #222
	HeaderBackgroundColor #227FAB
	StereotypeFontColor #ADAFAE
	BorderThickness 1
	AttributeFontColor #ADAFAE
	AttributeFontSize 11
}


skinparam object {
		FontColor #2A9FD6
	BorderColor #55B2DE
	BackgroundColor transparent
	StereotypeFontColor #ADAFAE
	BorderThickness 1
	AttributeFontColor #777777
	AttributeFontSize 11
}


skinparam usecase {
		FontColor #2A9FD6
	BorderColor #55B2DE
	BackgroundColor transparent
	BorderThickness 2
	StereotypeFontColor #2A9FD6
}


skinparam rectangle {
		FontColor #2A9FD6
	BorderColor #55B2DE
	BackgroundColor transparent
	BorderThickness 2
	StereotypeFontColor #2A9FD6
}


skinparam package {
	BackgroundColor transparent
  	BorderColor #2A9FD6
	FontColor #2A9FD6
	BorderThickness 2
}


skinparam folder {
	BackgroundColor transparent
  	BorderColor #FF8800
	FontColor #FF8800
	BorderThickness 2
}


skinparam frame {
	BackgroundColor transparent
  	BorderColor #9933CC
	FontColor #9933CC
	BorderThickness 2
}


skinparam state {
		FontColor #2A9FD6
	BorderColor #55B2DE
	BackgroundColor transparent
	StartColor #9933CC
	EndColor #9933CC
	AttributeFontColor #777777
	AttributeFontSize 11
}


skinparam queue {
		FontColor #2A9FD6
	BorderColor #55B2DE
	BackgroundColor transparent
}


skinparam card {
	BackgroundColor transparent
	BorderColor #9933CC
	FontColor #9933CC
}


skinparam file {
	BackgroundColor transparent
	BorderColor #555
	FontColor #555
}


skinparam BackgroundColor #222222
skinparam PackageStyle frame


package "global_context" {}
global_context ..> utils
global_context ..> ui_components
global_context ..> system
global_context ..> electron_ipcRenderer
global_context ..> visual_objects



package "electron_ipcRenderer" {}



package "system" {}
system <.[dotted]. system_info

package "system_info" {}
system_info ..> electron_ipcRenderer



package "ui_components" {}
ui_components <.[dotted]. ui_base_components
ui_components <.[dotted]. ui_parameters
ui_components <.[dotted]. ui_append_help

package "ui_base_components" {}
ui_base_components ..> utils

package "ui_parameters" {}
ui_parameters ..> utils
ui_parameters ..> ui_base_components
ui_parameters ..> ui_append_help

package "ui_append_help" {}
ui_append_help ..> utils
ui_append_help ..> ui_base_components



package "utils" {}
utils <.[dotted]. type_checking
utils <.[dotted]. randomizers
utils <.[dotted]. array_utils
utils <.[dotted]. log
utils <.[dotted]. event_mixin
utils <.[dotted]. object_utils

package "array_utils" {}
array_utils ..> type_checking

package "randomizers" {}
randomizers ..> type_checking

package "type_checking" {}

package "log" {}
log ..> electron_ipcRenderer

package "event_mixin" {}

package "object_utils" {}
object_utils ..> type_checking



package "visual_objects" {}
visual_objects <.[dotted]. visual_object
visual_objects <.[dotted]. visual_object_property

package "visual_object" {}
visual_object ..> ui_components
visual_object ..> utils
visual_object ..> visual_object_property

package "visual_object_property" {}
visual_object_property ..> visual_object
visual_object_property ..> utils
visual_object_property ..> ui_components

@enduml

PlantUML version 1.2021.7(Sun May 23 14:40:07 CEST 2021)
(GPL source distribution)
Java Runtime: Java(TM) SE Runtime Environment
JVM: Java HotSpot(TM) 64-Bit Server VM
Default Encoding: Cp1252
Language: fr
Country: FR
--></g></svg>