<!--MIT License - Copyright (c) 2020-2021 Picorims-->

<?xml version="1.0" encoding="UTF-8" standalone="no"?><svg xmlns="http://www.w3.org/2000/svg" xmlns:xlink="http://www.w3.org/1999/xlink" contentScriptType="application/ecmascript" contentStyleType="text/css" height="392.7083px" preserveAspectRatio="none" style="width:446px;height:392px;background:#222222;" version="1.1" viewBox="0 0 446 392" width="446.875px" zoomAndPan="magnify"><defs/><g><!--MD5=[12e8ed3d31618ab0ff1f89041617434d]
cluster ui_base_components--><rect fill="#222222" height="114.5833" style="stroke:#2A9FD6;stroke-width:2.0833333333333335;" width="172.9167" x="137.5" y="7.2917"/><path d="M304.1667,7.2917 L304.1667,25.6083 L293.75,36.025 L137.5,36.025 " fill="none" style="stroke:#2A9FD6;stroke-width:2.0833333333333335;"/><text fill="#2A9FD6" font-family="Verdana" font-size="12.5" font-weight="bold" lengthAdjust="spacing" textLength="145.8333" x="145.8333" y="26.1088">ui_base_components</text><!--MD5=[5d1b350b0743fff38882203718b7b4e9]
cluster ui_append_help--><rect fill="#222222" height="239.5833" style="stroke:#2A9FD6;stroke-width:2.0833333333333335;" width="433.3333" x="7.2917" y="146.875"/><path d="M138.5417,146.875 L138.5417,165.1917 L128.125,175.6083 L7.2917,175.6083 " fill="none" style="stroke:#2A9FD6;stroke-width:2.0833333333333335;"/><text fill="#2A9FD6" font-family="Verdana" font-size="12.5" font-weight="bold" lengthAdjust="spacing" textLength="110.4167" x="15.625" y="165.6921">ui_append_help</text><!--MD5=[5f541e8ad6d2a88033f479c756d5b41a]
class UIComponent--><rect codeLine="7" fill="#222222" height="52.6917" id="UIComponent" rx="4.1667" ry="4.1667" style="stroke:#55B2DE;stroke-width:1.0416666666666667;" width="132.2917" x="157.8125" y="52.0833"/><rect fill="#227FAB" height="36.025" rx="4.1667" ry="4.1667" style="stroke:#227FAB;stroke-width:1.0416666666666667;" width="132.2917" x="157.8125" y="52.0833"/><rect fill="#227FAB" height="4.1667" style="stroke:#227FAB;stroke-width:1.0416666666666667;" width="132.2917" x="157.8125" y="83.9417"/><rect codeLine="7" fill="none" height="52.6917" id="UIComponent" rx="4.1667" ry="4.1667" style="stroke:#55B2DE;stroke-width:1.0416666666666667;" width="132.2917" x="157.8125" y="52.0833"/><ellipse cx="172.3958" cy="70.0958" fill="#777777" rx="10.4167" ry="10.4167" style="stroke:#444444;stroke-width:1.0416666666666667;"/><path d="M173.9421,67.1824 Q174.056,67.0197 174.1943,66.9383 Q174.3327,66.8569 174.4954,66.8569 Q174.7721,66.8569 174.943,67.0522 Q175.1139,67.2475 175.1139,67.687 L175.1139,68.7612 Q175.1139,69.2006 174.943,69.396 Q174.7721,69.5913 174.4954,69.5913 Q174.235,69.5913 174.0885,69.4448 Q173.9421,69.3146 173.8607,68.924 Q173.8281,68.6635 173.6979,68.5333 Q173.4375,68.2566 172.9899,68.0939 Q172.5423,67.9311 172.0866,67.9311 Q171.5332,67.9311 171.0612,68.1753 Q170.5892,68.4194 170.2311,68.9646 Q169.873,69.5099 169.873,70.2749 L169.873,71.0887 Q169.873,71.9838 170.5322,72.5861 Q171.1914,73.1883 172.347,73.1883 Q173.0469,73.1883 173.5352,73.0092 Q173.8118,72.8953 174.1211,72.5698 Q174.3164,72.3745 174.4303,72.3175 Q174.5443,72.2605 174.6745,72.2605 Q174.9349,72.2605 175.1221,72.4477 Q175.3092,72.6349 175.3092,72.8953 Q175.3092,73.1557 175.0488,73.4487 Q174.6745,73.8719 174.0885,74.116 Q173.3073,74.4415 172.3633,74.4415 Q171.2402,74.4415 170.3613,73.9858 Q169.6289,73.6277 169.1243,72.8302 Q168.6198,72.0327 168.6198,71.1049 L168.6198,70.2586 Q168.6198,69.282 169.0755,68.4357 Q169.5313,67.5893 170.3369,67.1336 Q171.1426,66.6779 172.0378,66.6779 Q172.5911,66.6779 173.0632,66.7999 Q173.5352,66.922 173.9421,67.1824 Z " fill="#000000"/><text fill="#222222" font-family="Verdana" font-size="12.5" lengthAdjust="spacing" textLength="90.625" x="191.1458" y="75.0671">UIComponent</text><line style="stroke:#55B2DE;stroke-width:1.0416666666666667;" x1="158.8542" x2="289.0625" y1="88.1083" y2="88.1083"/><line style="stroke:#55B2DE;stroke-width:1.0416666666666667;" x1="158.8542" x2="289.0625" y1="96.4417" y2="96.4417"/><!--MD5=[1c9dc00bfd784125614cc1b299b41c30]
class UIHelp--><rect codeLine="11" fill="#222222" height="178.57" id="UIHelp" rx="4.1667" ry="4.1667" style="stroke:#55B2DE;stroke-width:1.0416666666666667;" width="398.9583" x="24.4792" y="191.6667"/><rect fill="#227FAB" height="36.025" rx="4.1667" ry="4.1667" style="stroke:#227FAB;stroke-width:1.0416666666666667;" width="398.9583" x="24.4792" y="191.6667"/><rect fill="#227FAB" height="4.1667" style="stroke:#227FAB;stroke-width:1.0416666666666667;" width="398.9583" x="24.4792" y="223.525"/><rect codeLine="11" fill="none" height="178.57" id="UIHelp" rx="4.1667" ry="4.1667" style="stroke:#55B2DE;stroke-width:1.0416666666666667;" width="398.9583" x="24.4792" y="191.6667"/><ellipse cx="192.7083" cy="209.6792" fill="#777777" rx="10.4167" ry="10.4167" style="stroke:#444444;stroke-width:1.0416666666666667;"/><path d="M194.2546,206.7657 Q194.3685,206.603 194.5068,206.5216 Q194.6452,206.4402 194.8079,206.4402 Q195.0846,206.4402 195.2555,206.6355 Q195.4264,206.8309 195.4264,207.2703 L195.4264,208.3445 Q195.4264,208.784 195.2555,208.9793 Q195.0846,209.1746 194.8079,209.1746 Q194.5475,209.1746 194.401,209.0281 Q194.2546,208.8979 194.1732,208.5073 Q194.1406,208.2469 194.0104,208.1167 Q193.75,207.84 193.3024,207.6772 Q192.8548,207.5144 192.3991,207.5144 Q191.8457,207.5144 191.3737,207.7586 Q190.9017,208.0027 190.5436,208.548 Q190.1855,209.0932 190.1855,209.8582 L190.1855,210.672 Q190.1855,211.5672 190.8447,212.1694 Q191.5039,212.7716 192.6595,212.7716 Q193.3594,212.7716 193.8477,212.5926 Q194.1243,212.4786 194.4336,212.1531 Q194.6289,211.9578 194.7428,211.9008 Q194.8568,211.8439 194.987,211.8439 Q195.2474,211.8439 195.4346,212.031 Q195.6217,212.2182 195.6217,212.4786 Q195.6217,212.7391 195.3613,213.032 Q194.987,213.4552 194.401,213.6993 Q193.6198,214.0249 192.6758,214.0249 Q191.5527,214.0249 190.6738,213.5691 Q189.9414,213.2111 189.4368,212.4135 Q188.9323,211.616 188.9323,210.6883 L188.9323,209.8419 Q188.9323,208.8654 189.388,208.019 Q189.8438,207.1726 190.6494,206.7169 Q191.4551,206.2612 192.3503,206.2612 Q192.9036,206.2612 193.3757,206.3833 Q193.8477,206.5053 194.2546,206.7657 Z " fill="#000000"/><text fill="#222222" font-family="Verdana" font-size="12.5" lengthAdjust="spacing" textLength="43.75" x="217.7083" y="214.6505">UIHelp</text><line style="stroke:#55B2DE;stroke-width:1.5625;" x1="25.5208" x2="422.3958" y1="227.6917" y2="227.6917"/><rect fill="none" height="6.25" style="stroke:#C82930;stroke-width:1.0416666666666667;" width="6.25" x="32.8125" y="236.025"/><text fill="#ADAFAE" font-family="Verdana" font-size="11.4583" lengthAdjust="spacing" textLength="115.625" x="49.4792" y="248.5865">_help_string: string</text><line style="stroke:#55B2DE;stroke-width:1.0416666666666667;" x1="25.5208" x2="422.3958" y1="260.3673" y2="260.3673"/><ellipse cx="35.9375" cy="271.8257" fill="#84BE84" rx="3.125" ry="3.125" style="stroke:#038048;stroke-width:1.0416666666666667;"/><text fill="#ADAFAE" font-family="Verdana" font-size="11.4583" lengthAdjust="spacing" textLength="362.5" x="49.4792" y="281.2622">UIHelp(parent: HTMLDivElement, help_string: string): UIHelp</text><ellipse cx="35.9375" cy="324.677" fill="#84BE84" rx="3.125" ry="3.125" style="stroke:#038048;stroke-width:1.0416666666666667;"/><text fill="#ADAFAE" font-family="Verdana" font-size="11.4583" lengthAdjust="spacing" textLength="247.9167" x="49.4792" y="334.1136">get help_msg() {return this._help_string}</text><ellipse cx="35.9375" cy="349.0194" fill="#84BE84" rx="3.125" ry="3.125" style="stroke:#038048;stroke-width:1.0416666666666667;"/><text fill="#ADAFAE" font-family="Verdana" font-size="11.4583" lengthAdjust="spacing" textLength="200" x="49.4792" y="358.4559">set help_msg(string: string): void</text><line style="stroke:#55B2DE;stroke-width:1.0416666666666667;stroke-dasharray:1.0,2.0;" x1="25.5208" x2="196.3542" y1="305.2142" y2="305.2142"/><text fill="#ADAFAE" font-family="Verdana" font-size="11.4583" lengthAdjust="spacing" textLength="44.7917" x="201.5625" y="309.2504">get, set</text><line style="stroke:#55B2DE;stroke-width:1.0416666666666667;stroke-dasharray:1.0,2.0;" x1="251.5625" x2="422.3958" y1="305.2142" y2="305.2142"/><!--MD5=[8d55f86c4c0064ec526adf4ac69b52e8]
reverse link UIComponent to UIHelp--><path codeLine="19" d="M223.9583,126.5729 C223.9583,145.9896 223.9583,169.1667 223.9583,191.5417 " fill="none" id="UIComponent-backto-UIHelp" style="stroke:#2A9FD6;stroke-width:3.125;"/><polygon fill="none" points="216.6667,126.2604,223.9583,105.4271,231.25,126.2604,216.6667,126.2604" style="stroke:#2A9FD6;stroke-width:3.125;"/><!--MD5=[2f630b327587ee34c36b71e927db0feb]
@startuml ui_append_help
!theme cyborg-outline
skinparam BackgroundColor #222222
' skinparam groupInheritance 2
skinparam PackageStyle frame

package "ui_base_components" {
    class UIComponent {}
}

package "ui_append_help" {
    class UIHelp {
        - _help_string: string
        - -
        + UIHelp(parent: HTMLDivElement, help_string: string): UIHelp
        ..get, set..
        + get help_msg() {return this._help_string}
        + set help_msg(string: string): void
    }
    UIComponent <|- - UIHelp
}

@enduml

@startuml ui_append_help



skinparam backgroundColor transparent
skinparam useBetaStyle false







skinparam defaultFontName       "Verdana"
skinparam defaultFontSize       12
skinparam dpi                   100
skinparam shadowing             false
skinparam roundcorner           8
skinparam ParticipantPadding    40
skinparam BoxPadding            40
skinparam Padding               5
skinparam ArrowColor            #ADAFAE
skinparam stereotype {
    CBackgroundColor #777777
    CBorderColor #444444
    ABackgroundColor #5F8F00
    ABorderColor #92C233
    IBackgroundColor #a30000
    IBorderColor #D63333
    EBackgroundColor #cc6d00
    EBorderColor #FFA033
    NBackgroundColor #7a29a3
    NBorderColor #AD5CD6
}
skinparam title {
	FontColor	                 #2A9FD6
	BorderColor	                 #777777
	FontSize	    	         20
	BorderRoundCorner            8
	BorderThickness 	         1
	BackgroundColor              transparent
}

skinparam legend {
	BackgroundColor transparent
	BorderColor #777777
	FontColor #ADAFAE
}

skinparam swimlane {
	BorderColor #9933CC
	BorderThickness 2
	TitleBackgroundColor  #444444-#555
	TitleFontColor #2A9FD6
}


skinparam activity {
		FontColor #2A9FD6
	BorderColor #55B2DE
	BackgroundColor transparent
	BarColor #77B300
	StartColor #9933CC
	EndColor #9933CC
	DiamondBackgroundColor transparent
  	DiamondBorderColor #777777
  	DiamondFontColor #777777
}


skinparam participant {
		FontColor #2A9FD6
	BorderColor #55B2DE
	BackgroundColor transparent
	ParticipantBorderThickness 2
}


skinparam actor {
		FontColor #2A9FD6
	BorderColor #55B2DE
	BackgroundColor transparent
	FontColor #2A9FD6
}


skinparam arrow {
	Thickness 3
	Color #2A9FD6
	FontColor #FFF
}


skinparam sequence {
	BorderColor #2A9FD6
	TitleFontColor #2A9FD6
	BackgroundColor transparent
	StartColor #2A9FD6
	EndColor #2A9FD6
	BoxBackgroundColor transparent
	BoxBorderColor #ADAFAE
	BoxFontColor $DARk
	LifeLineBorderColor #555
	LifeLineBorderThickness 2
	LifeLineBackgroundColor transparent
	GroupBorderColor #ADAFAE
	GroupFontColor #ADAFAE
	GroupHeaderFontColor #9933CC
	GroupBackgroundColor transparent
	GroupHeaderBackgroundColor transparent
	DividerBackgroundColor transparent
    DividerBorderColor #ADAFAE
    DividerBorderThickness 2
    DividerFontColor #ADAFAE
	ReferenceBackgroundColor transparent
	ReferenceBorderColor #ADAFAE
	ReferenceFontColor #ADAFAE
	ReferenceHeaderFontColor #9933CC
	ReferenceHeaderBackgroundColor transparent
}


skinparam partition {
	BorderColor #2A9FD6
	FontColor #2A9FD6
	BackgroundColor transparent
}


skinparam collections {
		FontColor #2A9FD6
	BorderColor #55B2DE
	BackgroundColor transparent
}


skinparam control {
		FontColor #2A9FD6
	BorderColor #55B2DE
	BackgroundColor transparent
	FontColor #2A9FD6
}


skinparam entity {
		FontColor #2A9FD6
	BorderColor #55B2DE
	BackgroundColor transparent
	FontColor #2A9FD6
}


skinparam boundary {
		FontColor #2A9FD6
	BorderColor #55B2DE
	BackgroundColor transparent
	FontColor #2A9FD6
}


skinparam agent {
	BackgroundColor transparent
	BorderColor #cc6d00
	FontColor #ADAFAE
}


skinparam note {
	BorderThickness 1
	BackgroundColor transparent
	BorderColor #AD5CD6
	FontColor #AD5CD6
}


skinparam artifact {
	BackgroundColor transparent
	BorderColor #BDBFBE
	FontColor #BDBFBE
}


skinparam component {
		FontColor #2A9FD6
	BorderColor #55B2DE
	BackgroundColor transparent
}


skinparam interface {
	BackgroundColor  transparent
	BorderColor  #CC0000
	FontColor #ADAFAE
}


skinparam storage {
	BackgroundColor transparent
  	BorderColor #FFA033
	FontColor #FF8800
}


skinparam node {
	BackgroundColor  transparent
	BorderColor #ADAFAE
	FontColor #ADAFAE
}


skinparam cloud {
	BackgroundColor transparent
	BorderColor #F2FCFE
	FontColor #ADAFAE
}


skinparam database {
		FontColor #2A9FD6
	BorderColor #55B2DE
	BackgroundColor transparent
	FontColor #2A9FD6
}



skinparam class {
		FontColor #2A9FD6
	BorderColor #55B2DE
	BackgroundColor transparent
        FontColor #222
	HeaderBackgroundColor #227FAB
	StereotypeFontColor #ADAFAE
	BorderThickness 1
	AttributeFontColor #ADAFAE
	AttributeFontSize 11
}


skinparam object {
		FontColor #2A9FD6
	BorderColor #55B2DE
	BackgroundColor transparent
	StereotypeFontColor #ADAFAE
	BorderThickness 1
	AttributeFontColor #777777
	AttributeFontSize 11
}


skinparam usecase {
		FontColor #2A9FD6
	BorderColor #55B2DE
	BackgroundColor transparent
	BorderThickness 2
	StereotypeFontColor #2A9FD6
}


skinparam rectangle {
		FontColor #2A9FD6
	BorderColor #55B2DE
	BackgroundColor transparent
	BorderThickness 2
	StereotypeFontColor #2A9FD6
}


skinparam package {
	BackgroundColor transparent
  	BorderColor #2A9FD6
	FontColor #2A9FD6
	BorderThickness 2
}


skinparam folder {
	BackgroundColor transparent
  	BorderColor #FF8800
	FontColor #FF8800
	BorderThickness 2
}


skinparam frame {
	BackgroundColor transparent
  	BorderColor #9933CC
	FontColor #9933CC
	BorderThickness 2
}


skinparam state {
		FontColor #2A9FD6
	BorderColor #55B2DE
	BackgroundColor transparent
	StartColor #9933CC
	EndColor #9933CC
	AttributeFontColor #777777
	AttributeFontSize 11
}


skinparam queue {
		FontColor #2A9FD6
	BorderColor #55B2DE
	BackgroundColor transparent
}


skinparam card {
	BackgroundColor transparent
	BorderColor #9933CC
	FontColor #9933CC
}


skinparam file {
	BackgroundColor transparent
	BorderColor #555
	FontColor #555
}


skinparam BackgroundColor #222222
skinparam PackageStyle frame

package "ui_base_components" {
    class UIComponent {}
}

package "ui_append_help" {
    class UIHelp {
        - _help_string: string
        - -
        + UIHelp(parent: HTMLDivElement, help_string: string): UIHelp
        ..get, set..
        + get help_msg() {return this._help_string}
        + set help_msg(string: string): void
    }
    UIComponent <|- - UIHelp
}

@enduml

PlantUML version 1.2021.7(Sun May 23 14:40:07 CEST 2021)
(GPL source distribution)
Java Runtime: Java(TM) SE Runtime Environment
JVM: Java HotSpot(TM) 64-Bit Server VM
Default Encoding: Cp1252
Language: fr
Country: FR
--></g></svg>